<?xml version="1.0" standalone="no"?>
<!DOCTYPE svg PUBLIC "-//W3C//DTD SVG 20010904//EN"
 "http://www.w3.org/TR/2001/REC-SVG-20010904/DTD/svg10.dtd">
<svg version="1.0" xmlns="http://www.w3.org/2000/svg"
 width="1024.000000pt" height="1024.000000pt" viewBox="0 0 1024.000000 1024.000000"
 preserveAspectRatio="xMidYMid meet">
<metadata>
Created by potrace 1.14, written by Peter Selinger 2001-2017
</metadata>
<g transform="translate(0.000000,1024.000000) scale(0.100000,-0.100000)"
fill="#000000" stroke="none">
<path d="M0 7945 l0 -2296 28 15 c16 8 83 36 148 61 248 96 466 195 589 268
74 43 242 160 286 199 15 13 44 37 65 53 96 75 264 237 326 315 20 25 54 76
76 113 24 41 42 63 46 55 3 -7 3 -3 1 8 -3 12 0 34 6 50 13 32 15 39 18 69 1
15 3 17 10 7 10 -16 10 -15 46 135 32 134 60 334 80 568 9 105 23 244 31 309
14 109 65 391 79 442 8 25 -19 50 -493 459 -19 17 -119 104 -221 195 -102 91
-209 184 -236 207 l-50 43 65 0 c69 0 70 7 2 33 -23 10 -75 40 -115 69 -111
80 -507 399 -507 408 0 12 43 -2 133 -44 42 -20 79 -36 82 -36 3 0 24 -8 48
-19 167 -74 334 -130 667 -221 124 -34 245 -68 270 -75 25 -8 90 -26 145 -40
99 -25 130 -35 455 -134 90 -28 170 -51 176 -51 7 0 40 45 74 100 218 355 590
728 925 928 28 16 77 46 109 66 l60 36 -1712 0 -1712 0 0 -2295z m1628 1934
c34 -45 62 -87 62 -94 0 -15 -75 -49 -93 -42 -8 3 -43 40 -77 82 -53 65 -61
79 -49 90 17 17 70 45 85 45 5 0 38 -37 72 -81z m-878 -1369 c0 -5 -4 -10 -10
-10 -5 0 -10 5 -10 10 0 6 5 10 10 10 6 0 10 -4 10 -10z m288 -589 c86 -61
114 -101 108 -155 -2 -23 0 -48 5 -57 7 -13 3 -16 -20 -15 -16 1 -27 4 -24 9
2 4 -1 7 -6 7 -19 0 -89 55 -106 83 -12 20 -65 160 -65 172 0 0 9 1 21 2 11 1
51 -20 87 -46z m-308 -1481 c0 -5 -4 -10 -10 -10 -5 0 -10 5 -10 10 0 6 5 10
10 10 6 0 10 -4 10 -10z"/>
<path d="M3603 10226 c4 -10 -5 -16 -29 -21 -19 -3 -32 -10 -29 -15 3 -6 0 -7
-8 -4 -8 3 -21 -2 -30 -10 -9 -9 -20 -16 -25 -16 -18 0 -92 -47 -85 -53 3 -4
-5 -7 -19 -7 -14 0 -33 -9 -43 -20 -10 -11 -24 -20 -32 -20 -8 0 -11 -4 -8
-10 3 -5 -1 -10 -10 -10 -9 0 -13 -4 -10 -10 3 -5 -1 -10 -9 -10 -9 0 -16 -4
-16 -10 0 -5 -7 -10 -16 -10 -10 0 -14 -5 -10 -16 3 -8 2 -13 -3 -10 -9 6 -51
-25 -105 -77 -16 -15 -33 -27 -37 -27 -5 0 -9 -5 -9 -11 0 -6 -11 -24 -25 -41
-14 -16 -25 -27 -25 -24 0 8 -141 -135 -227 -229 -104 -116 -161 -190 -169
-219 -3 -15 -12 -26 -19 -26 -8 0 -17 -5 -20 -10 -4 -6 -3 -10 2 -9 20 3 22
-2 6 -19 -10 -11 -21 -17 -24 -16 -3 2 -5 -8 -3 -21 1 -14 -2 -25 -7 -25 -5 0
-9 -6 -9 -13 0 -7 -13 -23 -30 -35 -16 -13 -30 -29 -30 -37 0 -7 -9 -17 -20
-20 -11 -3 -20 -13 -20 -21 0 -8 -7 -14 -16 -14 -8 0 -12 -4 -9 -10 3 -5 0 -7
-8 -4 -8 3 -18 1 -21 -5 -4 -6 -14 -8 -24 -5 -24 7 99 -55 191 -95 43 -19 80
-38 83 -42 2 -5 -42 12 -98 37 -189 83 -278 116 -294 110 -8 -3 -13 -2 -10 3
4 5 -21 18 -54 29 -33 12 -58 17 -55 12 5 -9 -27 -4 -60 10 -11 4 -35 13 -52
20 -18 7 -30 16 -27 21 3 5 -1 6 -9 3 -8 -3 -41 3 -73 12 -33 10 -63 19 -69
20 -5 1 -44 14 -85 28 -95 34 -348 108 -377 112 -13 1 -25 -2 -29 -7 -5 -9 15
-14 49 -11 10 1 16 -2 13 -7 -3 -5 0 -9 7 -8 44 1 68 -4 61 -15 -4 -6 -3 -8 3
-5 6 4 26 4 44 0 28 -5 30 -7 14 -14 -20 -8 -20 -9 0 -7 11 0 38 -7 60 -17 22
-9 49 -19 60 -21 11 -2 67 -19 125 -39 58 -19 112 -33 120 -30 8 4 11 3 7 -1
-3 -4 25 -17 63 -30 38 -13 97 -37 132 -53 35 -16 113 -50 173 -77 61 -26 122
-56 137 -66 14 -10 29 -18 32 -18 15 0 96 -57 90 -63 -4 -4 -2 -7 4 -7 6 0 14
-9 17 -20 3 -11 10 -20 15 -20 5 0 40 42 78 93 38 50 87 112 108 137 63 74
263 270 276 270 6 0 8 3 5 6 -8 8 132 124 149 124 7 0 14 4 16 8 6 17 194 137
318 205 30 16 78 46 105 65 28 20 43 27 35 17 -14 -17 -14 -17 6 -7 18 9 22
20 20 52 -1 22 1 40 5 40 8 0 22 40 19 55 -1 5 7 16 17 23 15 12 15 14 1 9
-14 -5 -15 -2 -6 25 6 17 19 33 29 35 10 3 16 9 14 14 -11 17 36 49 93 63 85
22 181 74 165 89 -10 10 42 18 84 13 23 -2 44 -2 47 1 11 11 129 2 232 -17
143 -27 254 -67 254 -91 0 -6 -6 -7 -12 -3 -7 4 2 -7 21 -23 42 -36 38 -58
-12 -58 -20 0 -37 -4 -36 -8 0 -4 -7 -14 -15 -22 -11 -11 -33 -14 -93 -10 -77
5 -77 4 -38 -9 33 -12 36 -15 15 -16 -16 -1 -4 -8 35 -19 89 -25 210 -88 266
-139 27 -24 48 -46 46 -48 -2 -3 -33 15 -69 39 -191 128 -469 158 -763 81
-115 -30 -259 -86 -248 -98 4 -4 0 -4 -10 0 -12 4 -17 1 -17 -12 0 -16 -2 -17
-10 -4 -9 13 -10 13 -10 0 0 -15 -96 -68 -113 -62 -5 1 -6 -1 -4 -5 3 -5 -15
-17 -39 -27 -24 -10 -42 -22 -39 -27 3 -4 -5 -11 -19 -15 -15 -3 -23 -11 -20
-19 3 -7 -5 -15 -21 -19 -14 -4 -23 -11 -20 -16 3 -6 -1 -10 -10 -10 -9 0 -13
-4 -10 -10 6 -9 -16 -15 -39 -11 -5 1 -4 -5 3 -13 7 -8 10 -20 6 -26 -10 -16
21 -12 35 5 7 8 19 15 27 15 11 0 11 -3 1 -14 -7 -8 -14 -13 -16 -11 -2 1 -37
-31 -78 -72 -64 -64 -73 -76 -64 -93 12 -23 23 -25 39 -7 6 8 23 12 41 9 25
-3 28 -7 20 -22 -5 -9 -6 -20 -3 -24 9 -9 35 -7 29 2 -3 5 1 9 9 9 8 0 13 -4
12 -8 -1 -4 7 -14 18 -22 19 -15 19 -15 -5 -37 -24 -21 -25 -21 -2 -15 14 4
22 2 22 -5 0 -7 6 -10 14 -7 9 4 16 -3 19 -20 3 -19 0 -27 -15 -31 -18 -4 -18
-5 2 -19 12 -8 19 -21 16 -29 -4 -9 2 -14 17 -14 15 0 18 3 9 9 -10 6 -10 10
3 21 12 10 15 10 15 -4 0 -9 5 -16 10 -16 6 0 10 5 10 10 0 7 8 6 23 -1 20
-11 21 -11 9 4 -12 14 -11 16 7 12 12 -2 21 1 21 7 0 5 7 7 15 4 9 -3 18 1 21
9 5 12 30 26 54 30 11 2 89 55 95 65 3 5 17 10 29 10 13 0 29 7 36 15 7 8 16
13 20 10 5 -3 10 -1 12 3 1 5 35 26 73 47 80 44 81 40 2 -13 -188 -127 -267
-190 -362 -286 -33 -33 -64 -59 -70 -58 -5 2 -7 0 -3 -4 4 -4 -29 -45 -73 -92
-145 -153 -354 -447 -484 -679 -42 -76 -63 -105 -49 -69 3 8 0 17 -7 22 -7 4
-10 3 -5 -4 3 -6 2 -13 -3 -16 -13 -8 -21 20 -23 78 -2 45 -3 47 -18 29 -8
-11 -28 -28 -43 -37 -15 -10 -24 -23 -20 -29 3 -6 1 -7 -6 -3 -6 4 -8 13 -4
19 4 7 -1 6 -11 -2 -11 -9 -20 -11 -27 -4 -10 10 25 123 58 186 23 45 9 42
-23 -5 -33 -49 -50 -68 -59 -68 -3 0 -3 5 0 10 4 7 -3 9 -19 6 -17 -3 -23 -1
-20 8 6 15 -37 16 -48 1 -4 -6 -8 -2 -8 8 0 9 -5 17 -11 17 -5 0 -7 -4 -4 -10
8 -12 -5 -13 -24 -1 -10 7 -12 19 -6 47 5 22 9 50 11 64 1 14 3 25 4 25 2 0 4
11 5 24 2 23 2 24 -11 6 -14 -18 -14 -18 -14 1 0 11 -17 -10 -38 -49 -21 -37
-42 -64 -46 -60 -4 4 -4 0 0 -10 3 -9 1 -17 -5 -17 -6 0 -8 -7 -4 -17 4 -11 3
-14 -5 -9 -8 4 -12 0 -12 -11 -1 -10 -7 -29 -16 -43 l-15 -25 7 25 c16 61 48
158 64 195 25 58 34 88 23 82 -5 -3 -15 -24 -23 -46 -7 -23 -17 -41 -22 -41
-4 0 -8 -10 -8 -22 0 -12 -3 -18 -7 -14 -4 3 -15 -10 -26 -31 -57 -116 -220
-560 -210 -575 2 -5 -1 -8 -7 -8 -6 0 -8 -5 -4 -11 8 -13 -116 -390 -126 -384
-5 3 -6 -5 -2 -17 4 -16 2 -19 -8 -13 -9 5 -11 4 -6 -4 8 -13 -2 -53 -12 -47
-4 2 -8 -6 -8 -19 -2 -29 -152 -334 -174 -355 -16 -15 -49 -83 -45 -91 4 -5 1
-9 -4 -9 -6 0 -11 -7 -11 -15 0 -8 -3 -15 -8 -15 -4 0 -13 -9 -20 -21 -11 -17
-11 -20 0 -13 7 4 3 -4 -8 -17 -12 -13 -32 -36 -44 -51 -13 -15 -27 -25 -32
-22 -4 3 -8 0 -8 -6 0 -6 -11 -21 -25 -34 -13 -13 -21 -27 -17 -31 4 -5 3 -6
-3 -3 -5 3 -48 -36 -95 -86 -83 -89 -120 -121 -245 -209 -101 -72 -303 -192
-440 -260 -137 -69 -175 -85 -540 -232 -126 -51 -260 -107 -297 -123 l-68 -31
0 -201 c0 -127 4 -200 10 -200 6 0 10 -6 10 -12 0 -29 115 -100 183 -112 20
-4 37 -12 37 -19 0 -7 15 -14 33 -16 63 -6 67 -7 79 -19 7 -7 20 -12 29 -12
10 0 20 -4 23 -9 3 -5 16 -7 28 -3 16 4 19 2 13 -9 -8 -12 -6 -12 8 0 14 11
23 11 47 1 16 -7 27 -16 24 -21 -3 -5 0 -9 5 -9 6 0 11 5 11 11 0 7 10 9 25 7
13 -3 22 -2 20 2 -3 4 6 10 18 14 70 17 306 217 432 364 33 39 64 71 69 71 5
1 1 -9 -10 -21 -10 -12 -14 -18 -7 -14 7 3 22 21 35 39 18 26 19 29 3 17 -17
-13 -18 -13 -10 0 17 31 38 49 49 43 6 -3 8 -3 4 2 -8 8 19 51 64 100 194 215
257 340 382 766 21 69 36 98 73 143 26 30 48 54 49 53 9 -12 -31 -171 -88
-342 -38 -115 -70 -221 -72 -235 -5 -40 -5 -42 -16 -35 -6 3 -7 -1 -4 -9 3 -9
8 -16 10 -16 6 0 48 84 46 93 -1 4 2 7 6 7 15 0 42 58 36 77 -4 13 -3 15 4 4
11 -15 21 -4 27 30 2 11 14 36 25 55 22 35 37 46 26 18 -3 -8 -2 -12 4 -9 6 3
10 12 10 19 0 7 13 40 30 72 16 32 30 67 30 77 0 9 5 17 10 17 6 0 10 6 8 13
-4 23 23 87 35 80 6 -4 8 0 4 10 -7 20 8 23 17 5 3 -7 4 -4 1 8 -7 29 4 54 21
47 8 -3 14 0 14 6 0 6 -5 11 -11 11 -5 0 -7 5 -4 10 4 6 11 8 16 5 5 -4 9 -1
9 6 0 7 2 10 5 8 7 -7 -18 -83 -30 -91 -6 -5 -5 -8 3 -8 9 0 10 -5 3 -17 -5
-10 -12 -34 -15 -53 -3 -20 -15 -57 -26 -83 -21 -46 -31 -79 -32 -104 -1 -7
-7 -14 -15 -17 -7 -3 -13 -15 -13 -26 0 -12 -4 -19 -9 -15 -6 3 -8 -3 -6 -14
2 -11 -3 -22 -12 -25 -8 -4 -13 -13 -10 -20 3 -8 -1 -20 -9 -26 -8 -7 -14 -20
-14 -30 0 -10 -8 -24 -17 -31 -16 -13 -17 -12 -4 4 7 9 9 17 3 17 -13 0 -24
-29 -15 -42 3 -6 1 -8 -5 -4 -13 8 -44 -52 -35 -67 4 -6 0 -8 -10 -4 -16 6
-22 -3 -18 -26 1 -4 -8 -3 -19 3 -17 9 -20 8 -20 -13 0 -13 -7 -32 -16 -43
-15 -18 -15 -18 -5 3 8 15 8 24 1 28 -6 4 -10 3 -9 -2 3 -20 -3 -34 -23 -54
-13 -12 -18 -19 -12 -16 7 4 15 0 18 -9 8 -21 8 -24 -5 -24 -5 0 -7 6 -3 13 5
9 4 9 -6 0 -7 -7 -14 -21 -15 -31 0 -11 -16 -38 -34 -61 -18 -23 -31 -44 -28
-47 3 -3 18 11 34 32 15 20 44 55 63 78 19 23 53 67 74 99 21 31 43 54 47 51
5 -3 9 2 9 11 0 10 5 13 12 9 7 -4 8 -3 4 5 -9 14 12 43 25 35 5 -3 6 1 3 9
-3 8 0 18 7 23 8 5 10 3 4 -7 -5 -8 -4 -11 1 -6 5 5 9 16 9 25 0 9 6 16 13 14
8 -1 11 2 7 7 -3 6 19 59 48 118 30 59 67 137 83 172 25 56 29 61 36 41 5 -13
11 -21 13 -18 3 3 1 17 -5 32 -7 19 -7 33 0 44 9 14 10 13 4 -7 -3 -13 -2 -21
3 -18 10 7 10 -48 -1 -82 -7 -19 -10 -21 -18 -10 -7 10 -8 8 -5 -9 3 -14 1
-20 -6 -15 -7 4 -8 0 -4 -11 4 -9 3 -15 -2 -12 -5 3 -12 -1 -15 -10 -4 -9 -2
-13 5 -8 7 4 7 0 -1 -15 -6 -12 -16 -18 -22 -15 -7 4 -8 3 -4 -5 18 -28 -221
-390 -247 -374 -6 3 -7 1 -3 -6 10 -15 -13 -43 -27 -34 -5 3 -7 1 -3 -5 3 -6
-13 -32 -36 -59 -23 -26 -49 -57 -57 -68 -9 -11 -61 -63 -116 -115 -92 -88
-221 -216 -267 -266 -16 -18 -17 -25 -7 -47 7 -15 16 -27 21 -27 16 0 191 83
233 110 22 15 72 43 110 64 131 71 360 219 450 291 50 39 144 123 210 185 66
63 100 92 75 65 -25 -27 -36 -42 -26 -34 29 21 120 119 125 132 2 7 -11 -4
-27 -23 -17 -19 -31 -31 -32 -26 0 19 52 65 68 59 10 -4 13 -2 8 5 -4 7 -2 12
4 12 6 0 8 5 5 10 -4 6 -1 9 7 8 7 -2 13 5 13 14 0 10 9 25 20 35 19 17 19 17
5 -3 -26 -36 33 30 85 95 28 35 69 84 92 109 23 26 43 52 43 57 0 6 9 17 20
25 11 8 20 22 20 31 0 9 9 19 21 22 11 3 19 11 18 19 -3 24 1 41 8 35 10 -10
35 31 27 45 -4 6 -3 8 3 5 6 -4 13 3 16 14 3 12 10 18 15 15 5 -3 14 0 20 7
19 24 52 88 52 102 0 8 3 15 8 15 4 0 15 12 23 26 16 26 16 26 22 5 3 -12 -1
-27 -8 -35 -8 -7 -12 -16 -9 -19 16 -16 -135 -389 -176 -432 -10 -11 -32 -45
-48 -75 -41 -79 -62 -110 -104 -155 -44 -48 -108 -131 -108 -141 0 -13 -54
-53 -63 -47 -6 3 -7 2 -4 -4 4 -6 -14 -28 -39 -49 -25 -22 -64 -56 -86 -76
-22 -21 -42 -38 -45 -38 -2 0 -11 -7 -20 -15 -8 -8 -19 -12 -25 -9 -6 4 -9 3
-6 -2 3 -5 -3 -17 -14 -26 -10 -10 -18 -15 -18 -10 0 4 -4 3 -8 -3 -11 -15
-70 -55 -82 -55 -5 0 -10 -4 -10 -8 0 -4 -13 -13 -30 -19 -16 -6 -30 -16 -30
-23 0 -6 5 -8 12 -4 7 4 8 3 4 -5 -4 -6 -11 -9 -16 -6 -11 7 -41 -5 -35 -15 7
-11 -24 -22 -37 -13 -6 3 -8 2 -5 -4 3 -5 -24 -24 -61 -41 -37 -18 -58 -26
-48 -17 11 8 16 15 10 15 -14 -1 -44 -26 -38 -32 2 -3 -7 -5 -21 -5 -15 0 -32
-6 -38 -13 -9 -10 -9 -11 3 -5 10 5 12 5 5 -2 -24 -24 -204 -86 -272 -94 -92
-10 -148 -25 -168 -45 -8 -9 -22 -13 -31 -10 -8 3 -13 2 -10 -3 6 -10 -163
-73 -175 -65 -5 3 -9 0 -9 -6 0 -6 -5 -8 -10 -5 -6 4 -17 1 -25 -5 -8 -6 -19
-9 -25 -5 -5 3 -10 1 -10 -4 0 -6 -8 -11 -17 -11 -14 0 -15 -2 -5 -9 11 -7 10
-10 -3 -15 -9 -3 -21 -4 -26 -1 -4 3 -17 -3 -28 -14 -18 -18 -18 -20 -3 -25 9
-2 0 -2 -20 1 -25 3 -38 1 -38 -6 0 -6 -7 -11 -15 -11 -8 0 -15 -4 -15 -10 0
-5 -6 -10 -14 -10 -14 0 -79 -33 -183 -92 -27 -15 -61 -34 -78 -41 -16 -8 -43
-26 -58 -41 -15 -14 -43 -36 -62 -49 -19 -13 -32 -27 -28 -30 6 -6 -20 -11
-40 -8 -5 1 -6 -3 -3 -8 3 -5 -11 -22 -31 -39 -34 -27 -36 -31 -23 -47 14 -17
13 -17 -8 -6 -18 9 -22 9 -20 -1 2 -7 -2 -12 -9 -11 -7 2 -10 -3 -7 -10 2 -7
-10 -26 -27 -42 -30 -28 -32 -22 -5 15 6 9 1 5 -12 -8 -12 -13 -20 -28 -16
-33 3 -6 1 -16 -5 -23 -9 -10 -6 -13 11 -12 13 1 22 7 21 13 -1 6 6 13 17 16
17 4 18 2 9 -16 -7 -14 5 -6 32 19 47 44 56 52 193 167 103 86 244 172 398
241 59 27 113 55 119 62 6 7 27 18 47 25 20 7 42 18 47 25 12 14 144 46 158
37 6 -3 7 -1 3 5 -5 8 2 10 23 6 23 -5 32 -2 40 15 7 12 17 18 26 15 8 -4 15
-1 15 5 0 6 8 11 19 11 10 0 33 6 51 14 30 12 35 12 57 -8 17 -15 22 -27 18
-43 -7 -30 2 -29 30 1 l23 24 -5 -59 c-3 -55 -2 -59 14 -50 10 5 28 19 41 31
28 27 47 21 50 -15 2 -22 32 -82 32 -63 0 4 16 0 35 -8 74 -30 222 -13 329 40
57 28 144 106 165 148 8 15 19 25 24 21 6 -3 7 -1 3 5 -3 6 7 30 23 54 66 99
196 320 243 415 29 60 55 100 61 96 6 -4 8 0 4 10 -3 10 -3 17 2 17 8 0 39 65
71 148 7 18 15 31 17 28 7 -6 -84 -218 -135 -316 -25 -47 -51 -98 -60 -115 -8
-16 -24 -38 -36 -48 -11 -10 -15 -16 -8 -12 10 5 9 -1 -2 -24 -9 -17 -22 -31
-28 -31 -6 0 -8 -3 -5 -7 4 -3 -2 -13 -14 -21 -13 -9 -19 -21 -16 -33 3 -11 0
-22 -5 -26 -7 -4 -8 -1 -3 7 5 8 4 11 -3 6 -6 -4 -8 -14 -5 -23 5 -12 3 -14
-7 -8 -9 5 -11 4 -6 -3 4 -7 2 -12 -3 -12 -6 0 -11 -5 -11 -12 0 -6 10 -2 23
10 13 12 27 19 32 15 4 -5 5 -3 1 4 -3 6 1 14 11 17 10 4 25 21 34 39 9 17 22
31 29 29 6 -1 9 2 5 8 -3 5 -1 10 5 10 14 0 40 25 40 39 0 10 14 15 32 12 5 0
7 2 7 7 -3 18 2 32 12 32 5 0 7 -5 3 -12 -4 -7 -3 -8 4 -4 6 4 8 14 5 23 -4
10 -2 14 4 10 5 -3 10 -1 10 6 0 17 53 97 64 97 5 0 9 7 9 16 0 8 4 13 9 10 7
-5 43 49 101 151 8 14 27 40 43 57 15 17 27 34 27 39 0 4 4 5 10 2 9 -5 14 6
12 25 0 3 9 7 20 7 16 2 19 -3 15 -22 -4 -25 17 -54 30 -41 3 3 1 6 -5 6 -16
0 -15 17 2 23 19 8 16 -54 -4 -71 -8 -8 -9 -11 -3 -7 9 4 11 1 7 -9 -3 -9 -11
-13 -17 -9 -6 3 -7 1 -3 -6 4 -6 -2 -27 -14 -47 -51 -82 -207 -294 -264 -358
-33 -38 -61 -72 -61 -75 0 -4 -19 -24 -43 -45 -23 -21 -40 -41 -37 -44 3 -3
-5 -16 -17 -29 -25 -27 -14 -31 17 -5 11 9 8 4 -8 -11 -15 -15 -32 -25 -37
-22 -6 3 -27 -7 -47 -24 -21 -17 -55 -37 -75 -46 -21 -8 -38 -18 -38 -21 0 -3
5 -2 12 2 7 4 8 3 4 -5 -4 -6 -12 -8 -18 -5 -6 4 -17 -1 -25 -11 -7 -11 -13
-16 -13 -12 0 4 -8 -1 -18 -11 -10 -10 -70 -35 -133 -56 -63 -21 -133 -47
-156 -57 -24 -11 -63 -28 -88 -39 -58 -26 -164 -33 -216 -15 -44 16 -59 13
-108 -24 -27 -20 -33 -22 -28 -9 3 10 1 20 -6 24 -7 4 -9 4 -5 0 4 -5 -5 -19
-19 -32 -14 -13 -24 -24 -21 -24 6 0 -70 -77 -148 -151 -27 -25 -75 -64 -106
-87 -32 -24 -58 -48 -58 -54 0 -6 -3 -8 -7 -5 -3 4 -13 -2 -20 -13 -8 -11 -18
-18 -23 -15 -4 2 -18 -4 -31 -14 -31 -24 -249 -136 -294 -151 -19 -6 -33 -15
-30 -20 3 -4 -4 -10 -15 -13 -11 -3 -18 -1 -14 4 3 5 -2 6 -10 3 -9 -3 -16 -9
-16 -13 0 -4 -6 -8 -13 -8 -13 0 -110 -40 -227 -95 -36 -16 -76 -35 -90 -41
-14 -7 -32 -19 -40 -28 -9 -9 -38 -29 -65 -45 -67 -37 -140 -93 -140 -107 0
-7 -9 -12 -20 -12 -19 0 -20 -8 -23 -139 l-3 -138 38 31 c74 62 179 133 245
167 67 34 110 48 54 18 -58 -32 -193 -133 -263 -199 l-73 -67 0 -249 c0 -137
3 -249 8 -249 4 0 18 9 32 20 14 11 30 20 37 20 6 0 13 3 15 8 12 28 289 116
350 111 13 -1 34 -1 48 0 20 1 22 3 10 11 -13 8 -12 10 3 10 11 0 21 -9 24
-20 3 -11 9 -17 14 -14 5 3 7 10 4 15 -4 5 -2 9 4 9 19 0 21 -18 9 -69 -11
-48 -10 -51 13 -70 13 -11 28 -20 32 -21 4 0 28 -9 53 -20 68 -32 95 -41 148
-51 51 -9 100 -3 90 12 -3 5 0 9 5 9 6 0 23 11 38 24 16 14 60 52 98 84 39 33
92 87 120 121 27 35 54 65 60 69 5 4 21 28 35 54 16 31 27 43 32 35 7 -11 10
-4 7 20 0 3 6 10 15 15 9 5 14 13 11 17 -2 5 2 14 10 21 8 7 15 19 15 27 0 8
5 11 10 8 5 -3 10 0 10 7 0 10 3 9 10 -2 7 -11 11 -9 19 13 6 15 13 27 15 27
6 0 -4 -31 -15 -45 -4 -5 -19 -32 -34 -60 -39 -71 -165 -236 -176 -229 -5 3
-7 -1 -4 -8 3 -7 -8 -27 -23 -44 -99 -114 -129 -150 -144 -175 l-17 -28 36 -7
c63 -12 240 19 363 64 30 11 64 23 75 27 11 4 -2 -6 -30 -23 -59 -35 -143 -65
-162 -58 -7 3 -13 2 -13 -3 0 -12 -94 -23 -190 -22 l-80 0 -43 -42 c-23 -24
-52 -55 -65 -71 -12 -16 -22 -26 -22 -23 0 3 -12 -5 -26 -18 -15 -14 -33 -25
-40 -25 -18 0 -27 19 -16 33 5 7 12 24 16 40 4 15 24 47 46 70 l40 42 -47 13
c-89 23 -118 34 -197 73 -43 22 -80 38 -82 36 -2 -1 -5 -36 -8 -77 -3 -54 -1
-78 9 -87 7 -6 16 -9 21 -5 4 4 4 -1 0 -12 -7 -19 9 -46 27 -46 6 0 2 6 -9 14
-18 14 -17 15 16 13 19 0 41 1 49 4 7 2 16 -3 18 -11 3 -10 2 -11 -4 -3 -6 8
-14 9 -23 3 -8 -6 -10 -10 -5 -11 6 0 1 -4 -9 -8 -12 -4 -20 -19 -22 -39 -3
-24 0 -30 10 -26 10 4 13 0 9 -14 -3 -15 2 -21 21 -26 26 -6 57 -46 36 -46 -5
0 -10 -7 -10 -15 0 -8 -10 -20 -22 -26 -37 -20 -61 -59 -37 -59 5 0 7 5 3 12
-4 7 -3 8 5 4 13 -8 8 -20 -23 -55 -12 -13 -15 -21 -8 -17 6 4 12 3 12 -3 0
-5 -3 -11 -7 -14 -5 -2 -1 -2 7 1 33 9 120 11 115 1 -4 -5 -12 -6 -18 -2 -7 4
-6 0 2 -10 7 -9 9 -17 4 -17 -11 0 -53 -72 -53 -91 0 -7 -8 -21 -17 -31 -11
-13 -14 -22 -7 -26 6 -4 10 -25 9 -47 -3 -56 -3 -57 -17 -49 -10 5 -10 4 -2
-5 14 -15 6 -63 -9 -54 -6 3 -7 1 -3 -5 4 -7 4 -32 1 -56 -5 -33 -11 -43 -21
-39 -8 3 -14 2 -13 -3 4 -23 -2 -35 -13 -28 -8 5 -7 -1 3 -16 8 -13 24 -27 35
-31 31 -11 121 24 226 87 51 31 97 59 102 62 5 3 6 0 2 -6 -4 -7 8 -5 30 4 22
9 33 11 29 4 -11 -18 33 7 83 47 23 19 42 31 42 26 0 -4 4 -3 8 3 16 25 214
164 224 158 6 -4 8 -2 5 3 -7 10 8 28 28 35 6 1 9 8 7 13 -2 6 -1 7 2 4 4 -3
50 38 103 92 53 54 101 95 105 92 5 -3 3 -12 -4 -21 -8 -10 -20 -29 -28 -44
-7 -16 -17 -28 -22 -28 -12 0 -10 14 4 28 8 8 8 12 1 12 -14 0 -24 -26 -17
-43 5 -13 -41 -67 -57 -67 -5 0 -5 -7 -2 -17 4 -11 3 -14 -5 -9 -11 6 -16 -5
-14 -25 1 -4 -8 -15 -20 -25 -12 -11 -18 -13 -14 -6 4 6 2 12 -3 12 -10 0 -15
-14 -12 -32 0 -4 -5 -5 -13 -2 -7 3 -19 -2 -26 -11 -11 -13 -10 -14 6 -8 17 6
18 5 4 -11 -12 -15 -8 -15 24 4 21 11 41 19 44 15 3 -3 -1 -5 -8 -5 -7 0 -11
-3 -8 -6 9 -8 107 41 194 98 132 86 257 183 345 270 46 46 87 82 92 80 5 -1 6
2 3 7 -3 5 1 14 9 21 8 7 15 9 15 4 0 -5 4 -4 8 1 4 6 20 21 36 33 16 12 22
22 15 22 -12 0 -12 2 -1 9 10 6 0 24 -43 72 -32 35 -69 82 -84 104 -14 22 -29
42 -33 45 -20 15 -91 188 -113 274 -19 77 -25 121 -23 200 l1 101 8 -105 c8
-116 13 -138 54 -255 47 -133 113 -246 186 -315 15 -14 57 -52 94 -85 37 -33
76 -68 86 -78 11 -9 21 -17 24 -17 3 0 15 -9 26 -19 12 -11 68 -45 125 -77 58
-31 103 -59 100 -61 -7 -7 -207 97 -283 148 -39 26 -74 45 -77 42 -10 -10 -7
-35 3 -28 12 7 -36 -114 -52 -134 -9 -12 -9 -13 1 -7 17 10 15 -4 -5 -26 -9
-11 -11 -18 -5 -18 7 0 12 -12 12 -27 0 -19 3 -24 9 -15 6 10 10 9 14 -7 3
-13 -1 -28 -11 -37 -14 -15 -14 -17 0 -28 12 -9 16 -33 17 -104 1 -60 -2 -92
-9 -92 -6 0 -8 6 -4 13 4 6 3 9 -1 4 -9 -7 -14 -30 -18 -74 -1 -12 -4 -21 -7
-21 -3 0 -12 0 -20 -1 -13 -1 -13 -3 -1 -10 11 -7 10 -12 -8 -22 -11 -8 -21
-20 -21 -28 0 -8 -3 -12 -6 -8 -8 8 -34 -18 -34 -33 0 -6 -4 -8 -10 -5 -5 3
-10 -1 -10 -9 0 -9 -3 -16 -7 -16 -13 -1 -93 -78 -93 -90 0 -6 -4 -8 -10 -5
-5 3 -10 1 -10 -5 0 -6 -4 -9 -8 -6 -5 3 -15 -6 -22 -19 -7 -13 -16 -22 -20
-20 -3 2 -19 -9 -34 -26 -15 -16 -33 -29 -40 -29 -7 0 -25 -14 -41 -30 -16
-17 -35 -30 -42 -30 -7 0 -13 -4 -13 -10 0 -5 -9 -10 -19 -10 -11 0 -21 -3
-23 -7 -4 -11 -163 -87 -219 -106 -107 -36 -271 -44 -464 -22 -49 6 -51 5
-105 -45 -30 -28 -61 -55 -68 -61 -19 -16 -10 -20 47 -24 28 -2 56 -6 63 -10
7 -4 5 0 -6 9 -18 14 -17 15 9 22 18 4 32 2 43 -9 20 -20 8 -35 -13 -17 -13
11 -14 10 -9 -4 3 -9 1 -16 -5 -16 -6 0 -11 -5 -11 -11 0 -5 5 -7 12 -3 7 4 8
3 4 -4 -4 -6 -14 -8 -23 -5 -11 4 -14 2 -11 -8 3 -8 -11 -32 -31 -54 -20 -21
-27 -33 -16 -25 20 14 20 14 1 -7 -10 -13 -23 -20 -27 -17 -5 3 -9 -2 -9 -10
0 -20 -38 -46 -59 -39 -13 4 -13 3 -2 -5 11 -8 9 -12 -10 -23 -13 -7 -27 -12
-32 -11 -4 1 -6 -1 -5 -5 3 -15 -14 -43 -26 -43 -6 0 -17 -10 -25 -22 -10 -17
-10 -20 0 -11 9 9 16 10 26 1 11 -8 12 -7 7 6 -5 12 1 18 25 22 17 4 28 10 25
15 -3 5 -2 9 3 8 21 -4 33 2 33 17 0 8 4 13 9 9 14 -8 81 27 74 38 -3 6 -2 7
4 4 5 -3 34 3 62 14 88 33 268 76 411 99 74 12 187 30 250 41 63 11 157 27
208 35 51 7 108 20 125 28 36 16 117 28 117 17 0 -3 47 16 104 45 97 48 219
85 233 71 3 -4 0 -14 -7 -22 -12 -14 -10 -15 16 -9 16 3 70 22 120 40 51 19
94 34 98 34 3 0 34 13 68 28 35 16 131 57 213 92 587 250 976 522 1046 730 18
55 25 54 23 -4 -2 -74 -83 -234 -144 -286 -14 -12 -35 -30 -48 -41 -12 -10
-26 -19 -31 -19 -5 0 -17 -8 -27 -17 -19 -20 -35 -31 -112 -81 -29 -19 -52
-38 -52 -44 0 -6 -7 -7 -16 -4 -8 3 -12 2 -9 -4 3 -5 -6 -12 -20 -16 -29 -7
-28 -13 3 -19 12 -2 23 3 26 11 4 10 13 13 26 9 11 -4 20 -2 20 4 0 6 9 11 20
11 11 0 20 5 20 10 0 6 9 10 19 10 11 0 22 4 26 10 3 5 12 7 21 3 8 -3 23 2
33 11 11 10 20 13 22 7 3 -7 14 -6 32 4 24 12 27 12 28 -3 0 -14 2 -14 6 -2
11 27 36 45 62 43 14 -2 20 0 14 3 -22 9 -15 19 22 33 19 7 35 19 35 27 0 9
11 14 30 14 19 0 30 5 30 14 0 9 11 13 33 12 27 -1 33 3 35 23 3 19 6 21 13
10 7 -11 9 -11 9 4 0 9 -5 17 -12 17 -20 0 0 13 24 15 13 1 29 3 36 4 6 0 12
10 12 22 0 14 5 19 14 16 10 -4 12 0 8 15 -3 14 -1 19 6 14 11 -6 17 12 13 37
0 4 6 7 14 7 8 0 14 3 14 8 -3 20 2 32 15 32 31 0 76 35 76 59 0 18 4 22 19
18 14 -3 18 -1 14 9 -3 8 -10 11 -17 7 -6 -4 -5 1 3 10 7 9 10 17 5 17 -5 0
-2 5 6 10 11 7 11 10 2 10 -10 0 -10 3 0 14 7 8 16 12 20 10 3 -2 4 6 1 17 -5
20 -3 21 27 17 30 -4 31 -4 15 9 -18 12 -18 13 3 13 16 0 22 6 22 21 0 15 5
19 15 15 14 -5 20 5 16 27 -1 5 3 6 9 2 5 -3 10 -2 10 3 0 6 9 8 20 5 11 -3
17 -9 14 -14 -3 -5 18 -9 45 -9 31 0 51 4 51 11 0 6 7 8 16 5 8 -3 12 -2 9 4
-3 6 -1 10 4 10 6 0 11 -6 11 -12 1 -9 4 -8 13 2 7 9 29 15 52 16 88 1 134 8
139 21 4 8 23 13 55 13 27 0 61 4 76 10 17 7 24 7 20 0 -3 -6 -1 -10 4 -10 6
0 11 6 11 13 0 8 4 7 11 -3 9 -12 10 -11 6 7 -4 20 -2 21 14 13 14 -8 17 -7
13 3 -7 19 22 30 45 17 10 -5 21 -6 25 -3 3 4 32 6 64 6 45 -1 50 0 22 6 -23
4 -31 9 -22 14 6 5 16 6 21 2 5 -3 12 -1 15 4 3 5 15 7 26 4 11 -3 20 0 20 6
0 15 37 14 43 -1 4 -10 6 -10 6 0 1 16 28 16 34 0 4 -10 6 -10 6 0 1 6 6 12
11 12 6 0 9 -6 8 -12 -2 -9 9 -12 39 -10 23 2 51 -2 63 -8 13 -7 20 -7 20 0 0
5 19 10 41 10 38 0 40 -1 28 -17 -11 -15 -10 -14 9 1 19 17 26 15 24 -5 -1 -4
8 -4 20 -1 21 5 21 6 2 13 -21 8 -16 11 21 11 43 0 51 -3 30 -12 -19 -8 -19
-9 3 -9 12 -1 22 4 22 9 0 6 6 10 13 10 7 0 19 9 27 19 7 11 17 18 22 15 4 -3
8 -1 8 5 0 6 11 16 24 23 25 14 79 56 129 101 30 27 36 28 87 23 30 -4 59 -11
63 -15 5 -5 13 -40 17 -78 5 -37 15 -99 23 -138 9 -38 25 -115 36 -170 27
-127 53 -215 63 -215 4 0 5 -6 2 -14 -3 -7 1 -20 8 -27 7 -8 14 -23 16 -34 5
-37 24 -75 34 -69 5 3 9 0 7 -7 -3 -27 1 -40 11 -34 6 3 10 -2 10 -12 0 -33
61 -119 74 -105 4 3 4 -1 0 -11 -4 -11 0 -19 10 -23 9 -3 16 -12 16 -20 0 -8
5 -14 11 -14 5 0 7 5 3 12 -4 7 -3 8 4 4 6 -4 9 -13 5 -21 -3 -8 0 -15 5 -15
6 0 13 -9 17 -19 4 -13 11 -18 22 -14 12 5 15 2 10 -10 -3 -9 -2 -17 2 -17 5
0 12 6 14 13 3 6 6 1 6 -13 1 -16 4 -21 9 -13 6 9 20 1 49 -25 23 -20 61 -50
83 -66 32 -22 39 -31 28 -38 -9 -7 -7 -8 8 -3 13 3 28 0 37 -10 9 -8 19 -15
23 -15 4 0 15 -7 25 -16 16 -14 18 -11 29 38 32 133 154 440 184 460 5 3 31
50 58 105 27 54 46 89 42 78 -4 -11 -8 -30 -8 -42 -1 -13 -5 -23 -9 -23 -5 0
-5 -4 -2 -10 3 -5 1 -10 -4 -10 -6 0 -10 -3 -9 -7 1 -5 -15 -39 -36 -76 -84
-148 -213 -479 -204 -524 1 -10 22 -28 46 -40 32 -16 38 -22 25 -26 -15 -3
-14 -6 7 -15 20 -8 21 -11 6 -11 -12 -1 -16 -6 -12 -17 7 -18 -13 -94 -24 -94
-4 0 -5 -11 -2 -25 2 -14 -1 -32 -8 -40 -7 -8 -10 -21 -7 -29 4 -9 -9 -27 -34
-48 -21 -18 -39 -38 -39 -46 0 -7 11 -1 26 15 l25 27 -6 -54 c-3 -30 -9 -59
-14 -65 -4 -5 -20 -42 -36 -82 -16 -41 -32 -70 -38 -66 -6 3 -7 1 -3 -5 3 -6
2 -13 -3 -17 -6 -3 -8 -12 -5 -20 4 -8 -1 -18 -10 -21 -20 -8 -49 -61 -41 -74
3 -6 3 -10 -2 -10 -4 0 -9 -12 -10 -26 0 -14 -24 -73 -52 -131 -28 -58 -50
-107 -48 -109 2 -2 16 23 32 56 15 32 34 61 42 64 7 3 14 16 14 28 1 18 2 19
6 5 5 -18 5 -18 18 0 13 17 14 17 10 -5 -2 -12 0 -20 6 -17 5 4 9 -9 10 -27
l1 -33 19 40 c11 22 32 63 47 90 15 28 65 122 111 210 46 88 93 172 103 187
11 16 16 33 12 39 -4 7 -3 9 3 6 16 -10 46 39 155 250 147 285 223 447 334
713 53 129 108 262 122 295 14 33 31 70 39 82 8 12 12 26 9 32 -4 5 1 16 9 25
8 8 15 19 14 23 -1 4 -1 16 0 27 1 15 4 16 15 7 19 -16 29 16 21 63 -6 30 -1
43 39 100 25 36 46 68 46 71 0 3 9 15 20 28 43 48 50 57 50 68 0 13 -81 -51
-144 -116 -37 -38 -48 -45 -44 -27 4 15 2 22 -8 22 -8 0 -14 5 -14 10 0 6 6
10 13 10 8 0 7 3 -3 10 -12 7 -11 12 5 32 11 13 23 25 27 28 4 4 9 22 10 42 2
20 5 35 7 33 2 -2 10 3 18 11 8 8 19 11 25 8 7 -5 9 0 6 14 -4 15 -2 22 7 22
17 0 65 43 65 58 0 5 15 17 34 26 18 8 51 34 73 56 23 22 48 40 57 40 9 0 24
9 33 20 10 11 25 20 34 20 9 0 19 7 22 14 3 8 22 18 41 21 19 4 34 12 33 17
-1 6 9 13 23 15 56 10 92 4 125 -21 19 -14 38 -26 43 -26 6 0 12 -5 14 -12 2
-6 17 2 36 20 29 29 62 34 62 11 0 -5 5 -9 11 -9 5 0 7 4 4 10 -6 10 19 63 42
88 7 7 18 10 24 6 7 -4 9 -3 6 3 -4 6 0 16 8 23 8 7 15 9 15 6 0 -4 6 -2 13 3
6 6 47 38 89 72 106 83 208 215 208 270 0 13 4 30 9 38 6 9 4 22 -6 37 -8 13
-13 33 -11 46 3 20 18 8 119 -94 119 -120 202 -231 279 -373 23 -43 49 -85 56
-93 8 -7 17 -24 20 -38 3 -13 10 -24 15 -24 5 0 9 -6 9 -12 1 -13 60 -97 60
-85 0 11 36 -28 43 -46 3 -9 11 -17 17 -17 6 0 21 -9 33 -20 29 -27 46 -22 69
20 17 31 18 50 14 160 -6 137 -13 180 -29 180 -6 0 -8 3 -4 6 6 7 -50 125 -63
134 -5 3 -20 28 -34 55 -13 28 -34 60 -46 73 -11 12 -18 22 -15 22 3 0 1 9 -5
20 -6 11 -15 18 -19 16 -4 -3 -19 20 -33 52 -15 31 -37 69 -51 84 -14 15 -22
29 -19 32 3 3 -2 6 -11 6 -8 0 -18 9 -22 19 -3 11 -12 21 -19 24 -15 6 -97
124 -100 144 -1 8 -9 22 -17 31 -8 9 -21 33 -28 52 -8 19 -24 49 -36 65 -28
38 -115 213 -115 231 0 8 -3 14 -7 14 -5 0 -13 12 -20 26 -10 22 -10 24 3 14
8 -7 14 -9 14 -5 0 5 9 -3 21 -16 11 -13 26 -24 32 -24 7 -1 11 -6 10 -11 -1
-6 5 -11 13 -11 19 0 19 -1 -26 71 -42 66 -51 106 -25 106 28 0 10 39 -41 87
-92 88 -168 150 -211 172 -24 12 -43 25 -43 29 0 10 -58 40 -95 48 -16 4 -34
9 -39 12 -10 6 -46 9 -150 16 -38 3 -72 8 -75 13 -3 4 -15 9 -26 11 -26 4
-127 41 -140 51 -12 10 -106 41 -119 40 -5 0 -12 4 -15 9 -3 5 -35 19 -71 32
-83 29 -217 95 -300 148 -299 190 -386 251 -474 337 -11 11 -38 35 -59 53 -21
17 -37 32 -34 32 2 0 -40 44 -95 98 -93 91 -214 235 -217 257 0 6 -8 18 -16
28 -8 9 -15 21 -15 26 0 15 -37 42 -64 47 -25 4 -36 -9 -16 -21 6 -3 10 -11
10 -17 0 -6 -9 -3 -20 7 -18 16 -25 17 -54 7 -18 -7 -40 -12 -49 -12 -9 0 -17
-4 -17 -9 0 -5 -30 -13 -67 -16 -38 -4 -72 -11 -78 -15 -17 -14 -186 -58 -245
-65 -100 -11 -96 -8 -121 -87 -13 -40 -25 -78 -27 -85 -2 -8 21 -4 65 12 127
44 388 123 413 125 64 5 78 0 100 -35 12 -20 27 -41 34 -48 7 -6 15 -19 19
-27 4 -8 18 -33 32 -54 22 -37 22 -41 7 -53 -16 -11 -15 -12 4 -13 25 0 65
-40 67 -68 1 -12 8 -24 17 -27 11 -5 4 -13 -25 -30 -48 -30 -138 -50 -161 -37
-14 8 -9 16 30 61 48 54 59 79 29 65 -28 -13 -157 -16 -197 -6 -22 6 -38 7
-42 1 -3 -5 -35 -9 -72 -9 -226 0 -495 -90 -620 -208 l-57 -53 65 46 c93 66
232 131 330 154 140 34 350 53 350 33 0 -12 -45 -53 -52 -47 -12 12 -352 -57
-385 -78 -7 -5 -50 -27 -95 -49 -96 -48 -211 -154 -247 -227 l-21 -45 30 29
c37 36 39 25 3 -22 -55 -72 -26 -92 46 -31 37 32 78 54 86 46 3 -3 8 -16 10
-28 9 -49 27 -90 38 -90 7 0 23 16 37 35 27 36 54 49 79 36 9 -5 24 -6 34 -2
10 4 51 5 92 4 44 -1 75 2 75 8 0 6 6 6 18 0 13 -7 23 -6 30 1 9 9 12 8 12 -4
0 -9 -5 -20 -10 -23 -6 -4 -8 -11 -5 -16 4 -5 20 4 36 21 31 31 48 33 132 14
43 -9 38 -54 -10 -90 -21 -15 -62 -51 -90 -80 -43 -43 -61 -54 -98 -60 -82
-12 -175 15 -239 71 -16 13 -32 22 -36 20 -5 -3 -6 3 -4 13 4 12 -4 21 -25 29
-17 6 -31 9 -31 6 0 -2 16 -28 37 -57 32 -47 43 -55 97 -71 147 -43 298 -28
372 38 33 28 68 80 69 102 2 21 17 55 24 55 4 0 8 6 9 13 9 76 27 137 40 137
31 0 91 -23 117 -46 34 -29 39 -67 15 -114 -22 -43 -111 -140 -128 -140 -7 0
-11 -5 -9 -12 1 -6 -22 -21 -51 -31 -45 -17 -51 -22 -40 -35 12 -13 10 -14 -9
-1 -18 11 -25 11 -35 1 -6 -6 -22 -12 -35 -12 -13 0 -23 -5 -23 -10 0 -6 6
-10 13 -8 6 2 27 -8 45 -20 36 -26 40 -23 15 16 -13 20 -14 24 -3 16 8 -6 40
-10 70 -9 33 1 64 -4 78 -12 28 -17 40 -10 22 12 -7 8 -9 15 -4 15 4 0 0 6
-10 13 -15 11 -12 13 26 12 24 -1 52 -5 63 -9 19 -7 19 -7 -1 11 -19 17 -19
19 -4 36 9 9 31 20 48 23 28 6 46 24 23 24 -4 0 -6 11 -3 25 2 14 11 25 19 25
12 0 13 3 5 13 -9 10 -3 21 23 45 18 18 48 61 66 97 l33 64 82 3 c57 2 85 -1
93 -10 7 -7 17 -9 23 -6 6 4 8 3 4 -4 -3 -5 -1 -12 5 -14 5 -2 11 -18 11 -35
1 -18 4 -31 7 -29 8 4 41 -31 35 -37 -3 -3 1 -21 10 -40 8 -19 12 -37 10 -40
-3 -2 -5 -20 -6 -40 -1 -23 -5 -34 -12 -30 -6 3 -8 3 -4 -2 4 -4 4 -13 -1 -19
-5 -6 -39 -94 -76 -196 -141 -390 -309 -743 -458 -965 -121 -180 -351 -419
-549 -569 -396 -301 -644 -455 -800 -500 -114 -33 -251 -14 -362 48 -23 13
-59 33 -81 46 -55 31 -219 143 -223 152 -2 5 -8 8 -13 8 -13 0 -244 176 -374
285 -148 125 -366 349 -451 465 -137 186 -253 389 -334 585 -23 55 -59 141
-80 190 -21 50 -46 114 -55 144 -10 30 -33 88 -51 128 -46 100 -47 168 -4 206
16 15 32 39 36 54 16 75 36 133 49 146 8 8 11 17 8 21 -4 3 -1 6 6 6 7 0 9 5
6 10 -3 6 1 10 10 10 9 0 14 -4 11 -9 -3 -5 0 -11 8 -14 8 -3 40 -39 73 -79
32 -40 62 -75 67 -77 5 -2 -4 -9 -20 -17 l-29 -12 30 -1 c31 -1 66 -36 43 -43
-17 -6 0 -28 22 -28 10 0 31 -5 46 -10 26 -10 26 -11 9 -30 -20 -22 -14 -26
16 -10 13 8 19 7 19 0 0 -6 4 -9 9 -5 6 3 14 -2 19 -12 9 -15 12 -15 29 -3 10
8 7 2 -7 -14 l-25 -29 25 16 c25 16 54 19 98 11 19 -4 21 -7 11 -25 -10 -20
-10 -20 15 -4 14 10 26 14 26 11 0 -4 9 -2 21 5 27 14 17 22 -54 44 -32 10
-60 22 -64 28 -3 6 -1 7 5 3 7 -4 12 -3 12 2 0 5 -30 29 -66 53 -69 45 -98 77
-133 146 -23 47 -26 57 -11 48 6 -3 10 0 10 7 0 19 50 71 83 86 56 24 62 19
75 -64 15 -92 49 -167 105 -227 80 -86 243 -110 387 -57 30 11 64 30 74 42 26
31 86 162 86 187 0 22 33 30 45 12 6 -11 123 -101 129 -101 8 0 -11 54 -34 99
l-22 44 31 -22 c27 -20 30 -20 24 -4 -4 10 -9 20 -12 23 -3 3 -26 28 -51 55
-53 60 -156 146 -216 181 -95 56 -344 126 -444 125 -36 -1 -52 5 -80 29 l-35
29 38 1 c87 0 318 -31 362 -49 11 -5 40 -15 65 -22 25 -7 47 -16 50 -19 3 -3
19 -12 35 -20 45 -22 146 -90 178 -118 15 -14 27 -21 27 -15 0 6 -19 28 -42
49 -138 126 -341 196 -608 210 -97 6 -128 11 -137 23 -12 16 -14 14 -17 -11
-2 -20 -156 -21 -156 -1 0 8 -4 11 -10 8 -10 -6 0 28 20 66 7 13 7 19 0 19 -5
0 -10 -4 -10 -10 0 -5 -4 -10 -8 -10 -4 0 -8 9 -8 19 0 11 5 17 10 14 5 -4 7
1 3 10 -8 20 18 122 38 150 8 12 15 17 15 12 0 -6 4 -4 9 4 11 18 51 5 51 -17
0 -13 2 -14 8 -4 7 10 32 5 113 -23 57 -20 156 -53 219 -75 63 -21 160 -55
215 -75 149 -54 181 -64 285 -91 113 -29 116 -29 99 -6 -13 16 -12 16 5 2 38
-30 48 -22 43 31 -3 28 -7 52 -9 54 -29 29 -532 196 -738 245 -125 30 -192 52
-197 67 -3 7 -9 10 -14 7 -5 -3 -7 -9 -4 -14 3 -4 -13 -3 -34 2 -43 11 -70 48
-47 67 7 6 27 56 46 111 18 55 37 100 42 100 4 0 8 7 8 15 0 8 5 15 10 15 6 0
10 8 10 18 0 10 5 23 12 30 6 6 13 20 14 29 6 40 17 78 24 83 12 8 47 119 80
250 17 69 42 164 56 211 13 47 26 99 29 115 6 40 80 256 106 305 11 23 19 50
16 60 -3 10 1 23 9 30 8 6 14 18 14 25 0 8 4 14 10 14 5 0 6 7 3 17 -4 11 -3
14 5 9 7 -4 12 -1 12 8 0 8 9 20 20 26 11 6 20 17 20 24 0 8 7 17 16 20 9 4
14 13 10 22 -3 8 -2 12 4 9 8 -5 34 29 35 47 0 4 7 13 16 20 8 7 31 33 49 58
60 79 123 140 196 190 57 38 71 44 66 28 -4 -18 -3 -19 16 -7 11 7 18 17 15
22 -3 5 4 4 16 -3 18 -9 27 -8 48 5 13 9 27 14 30 11 4 -3 12 -1 20 6 7 6 16
8 19 5 3 -3 17 -2 31 4 16 6 22 6 18 -1 -3 -6 4 -10 17 -11 18 0 15 -3 -14
-16 -21 -8 -35 -19 -32 -24 3 -5 2 -9 -3 -8 -16 3 -53 -14 -48 -21 3 -5 -3
-11 -12 -14 -23 -8 -135 -111 -165 -153 -20 -27 -57 -74 -123 -155 -8 -10 -28
-44 -46 -78 -17 -33 -33 -60 -36 -60 -2 0 -1 6 3 13 5 8 3 8 -9 -2 -9 -7 -15
-17 -12 -21 3 -5 1 -10 -5 -12 -14 -5 -100 -160 -100 -181 0 -10 -4 -15 -10
-12 -5 3 -10 -3 -10 -14 0 -12 -4 -21 -9 -21 -8 0 -27 -40 -33 -70 -2 -8 -8
-19 -14 -25 -17 -15 -30 -60 -14 -50 9 6 11 -1 6 -26 l-6 -34 13 35 c8 19 16
30 19 25 6 -13 0 9 -9 33 -6 15 -5 15 10 4 14 -12 17 -10 22 15 11 49 13 49
15 3 2 -41 3 -38 19 38 9 46 20 80 24 76 4 -4 7 -2 7 5 0 8 8 11 20 8 11 -3
18 -2 15 3 -6 9 19 32 28 25 4 -3 5 -2 2 1 -2 4 3 13 11 21 8 8 12 19 8 24 -3
5 2 12 10 15 9 3 13 11 9 17 -4 6 3 8 19 4 31 -8 42 1 26 22 -7 9 -8 13 -4 9
5 -4 21 1 35 11 28 20 29 20 64 22 21 1 21 1 -3 8 -17 5 12 11 90 20 136 15
133 15 280 7 142 -8 162 -11 190 -26 18 -10 21 -10 14 2 -5 8 2 6 19 -5 18
-12 27 -13 27 -5 0 6 6 4 13 -6 15 -21 37 -18 55 7 12 15 15 16 28 2 14 -13
20 -12 60 15 24 17 44 26 44 20 0 -6 27 -8 78 -5 72 5 244 9 267 6 6 -1 3 -6
-5 -11 -11 -8 -8 -9 13 -4 18 4 27 2 27 -6 0 -8 10 -9 30 -5 19 4 30 3 30 -4
0 -6 9 -11 21 -11 15 0 19 -5 15 -16 -3 -8 -2 -12 4 -9 6 3 10 0 10 -8 0 -16
27 -30 40 -22 10 6 26 -27 29 -60 0 -8 10 -15 21 -15 12 0 28 -13 40 -32 10
-17 29 -38 42 -45 15 -8 18 -13 8 -13 -8 0 0 -8 17 -16 18 -9 30 -21 27 -26
-3 -5 3 -16 15 -24 12 -9 19 -19 16 -24 -3 -4 2 -13 10 -20 8 -7 15 -19 15
-27 0 -8 4 -12 9 -8 6 3 15 -3 20 -14 9 -15 7 -24 -7 -37 -16 -17 -16 -17 5
-12 17 4 24 1 29 -14 5 -17 8 -18 16 -7 7 10 8 6 5 -14 -3 -18 0 -30 8 -33 7
-3 10 -14 7 -26 -3 -12 -1 -19 4 -15 12 7 24 -20 68 -153 39 -116 47 -119 17
-7 -70 258 -149 444 -318 749 -100 181 -303 412 -424 482 -58 34 -61 37 -29
32 19 -4 46 -7 60 -9 14 -1 31 -6 38 -11 7 -4 16 -5 19 -2 4 3 1 6 -6 6 -7 0
-9 5 -6 10 4 6 17 2 33 -11 16 -12 28 -16 30 -9 2 6 15 0 29 -15 23 -23 75
-36 72 -17 -10 64 138 -92 234 -248 39 -63 76 -118 81 -122 7 -5 7 -8 1 -8 -5
0 -4 -4 3 -9 7 -4 37 -56 67 -115 32 -66 56 -103 60 -96 4 7 2 16 -5 20 -6 4
-10 9 -9 11 5 7 -36 99 -44 99 -5 0 -5 5 -2 10 3 6 1 10 -4 10 -6 0 -11 6 -11
14 0 8 -5 16 -12 18 -6 2 -12 13 -13 24 0 11 -12 38 -25 60 -40 65 -151 214
-160 214 -5 0 -11 8 -15 19 -3 10 -25 45 -49 77 -25 32 -42 62 -40 66 3 5 -2
8 -10 8 -9 0 -16 3 -16 8 1 10 26 42 34 42 3 0 6 -8 7 -17 0 -11 3 -13 6 -5 2
6 13 12 23 12 10 0 25 6 32 14 14 13 45 26 61 25 5 0 26 18 47 40 22 23 46 41
54 41 23 0 46 11 41 20 -3 5 -1 11 5 15 5 3 10 1 10 -5 0 -6 5 -8 10 -5 6 4 7
12 4 18 -6 10 19 -9 64 -50 7 -7 16 -13 19 -13 6 0 -38 73 -51 83 -7 6 -4 7 6
4 9 -3 19 1 22 10 4 9 13 13 22 9 11 -4 18 1 21 14 3 11 13 21 22 22 9 0 21 2
28 2 6 1 15 5 19 9 13 13 24 7 17 -10 -4 -11 -3 -14 5 -9 7 4 34 -16 68 -51
42 -43 49 -48 30 -20 -15 20 -24 42 -20 49 4 6 3 8 -3 5 -6 -4 -17 1 -24 11
-13 15 -12 16 4 3 20 -15 23 -2 5 19 -7 8 -3 6 10 -5 13 -10 29 -20 37 -21 24
-4 92 -74 168 -172 39 -52 82 -106 94 -119 12 -14 25 -33 28 -43 3 -10 13 -21
21 -24 12 -4 8 7 -11 41 -36 63 -21 46 51 -55 93 -131 114 -164 108 -173 -3
-5 34 -79 81 -164 78 -142 113 -211 190 -380 55 -121 65 -147 58 -157 -3 -6
-2 -8 4 -5 5 3 31 -48 58 -116 46 -116 95 -222 95 -203 0 5 6 3 14 -3 11 -9
12 -4 5 31 -11 58 -11 80 1 73 12 -7 -3 29 -92 225 -38 85 -73 164 -77 175
-25 64 -207 423 -212 419 -7 -4 -44 66 -41 79 1 4 -2 7 -7 7 -8 0 -64 85 -66
100 -1 7 -52 88 -110 178 -119 181 -332 425 -507 580 -27 23 -48 46 -48 51 0
5 -7 14 -15 21 -8 7 -15 18 -14 24 0 8 2 8 5 0 3 -8 17 -7 47 3 56 19 64 29
45 50 -19 21 -36 79 -21 70 13 -8 37 48 29 68 -4 10 1 15 14 15 11 0 19 6 18
13 -2 6 4 11 12 10 10 -2 21 10 29 32 11 32 16 35 52 35 36 0 38 1 27 19 -7
11 -16 17 -20 15 -4 -3 -8 -1 -8 5 0 5 -16 26 -37 46 -27 26 -32 35 -18 35 14
0 15 3 6 14 -9 10 -9 16 -1 21 6 4 -23 24 -64 45 -173 89 -337 121 -505 100
-52 -7 -106 -16 -120 -22 -32 -12 -81 -17 -81 -7 0 4 16 10 35 13 19 4 40 12
47 19 42 41 272 54 428 24 47 -9 105 -19 130 -22 40 -4 42 -3 20 8 -14 6 -29
17 -33 24 -4 7 -17 13 -28 13 -11 0 -17 5 -14 10 3 6 1 10 -5 10 -6 0 -14 8
-17 18 -4 9 -14 23 -22 30 -9 8 -10 10 -2 6 10 -5 11 -1 6 17 -4 13 -13 27
-19 31 -8 5 -7 8 2 8 9 0 10 5 4 18 -5 9 -7 22 -5 29 2 6 -1 14 -7 18 -8 5 -5
11 7 21 14 11 15 14 3 14 -10 1 -9 4 5 10 13 5 1 7 -35 5 -45 -4 -50 -3 -25 5
24 8 20 8 -25 5 -40 -3 -51 -2 -40 6 11 8 -6 9 -60 5 -80 -6 -71 7 15 19 27 5
42 11 35 15 -7 4 2 10 24 14 27 5 36 12 36 26 0 11 -7 20 -16 20 -8 0 -12 5
-9 10 4 7 -362 10 -1090 10 -937 0 -1096 -2 -1092 -14z m-132 -744 c-7 -2 -18
1 -23 6 -8 8 -4 9 13 5 13 -4 18 -8 10 -11z m1181 -121 c84 -33 80 -43 -5 -13
-62 23 -88 26 -195 27 -68 0 -113 3 -100 7 13 4 73 6 133 4 84 -2 124 -8 167
-25z m-339 2 c-7 -2 -19 -2 -25 0 -7 3 -2 5 12 5 14 0 19 -2 13 -5z m-2083
-291 c3 -3 -8 -2 -25 2 -16 4 -34 12 -40 17 -5 5 6 4 25 -2 19 -7 37 -14 40
-17z m3803 -209 c-4 -10 -9 -11 -19 -2 -18 15 -18 15 5 15 11 0 17 -5 14 -13z
m-2382 -106 c-6 -8 -8 -17 -4 -21 4 -4 -1 -4 -11 0 -15 6 -17 4 -10 -7 5 -8 9
-18 9 -24 0 -5 9 -10 20 -10 11 0 26 -4 33 -8 7 -5 12 -4 12 2 0 6 5 11 11 11
6 0 9 -7 5 -15 -5 -13 -2 -14 15 -4 19 10 20 9 8 -13 -12 -22 -11 -23 8 -5 24
21 40 23 23 2 -6 -8 -9 -19 -6 -24 4 -6 -10 -28 -29 -50 -23 -25 -34 -45 -29
-53 4 -7 4 -10 0 -6 -12 10 -56 -41 -49 -58 3 -7 -2 -16 -10 -20 -9 -3 -18
-12 -21 -20 -4 -10 -2 -13 7 -7 13 8 43 44 46 55 6 19 189 195 203 195 15 0
15 -3 5 -16 -9 -12 -9 -13 1 -7 17 10 52 -2 52 -18 0 -8 19 -16 53 -19 32 -4
57 -13 66 -24 9 -13 15 -14 18 -5 9 24 21 1 17 -33 -4 -37 3 -43 26 -22 8 6 6
1 -5 -12 l-20 -24 30 16 c17 8 39 25 50 37 23 25 62 49 51 31 -10 -16 1 -14
32 6 27 17 27 17 9 -3 -9 -11 -15 -23 -12 -26 3 -3 -40 -49 -95 -104 -56 -54
-126 -130 -156 -169 -67 -86 -180 -260 -162 -249 7 4 3 -4 -9 -17 -11 -13 -28
-40 -37 -59 -9 -19 -32 -64 -50 -99 -19 -36 -32 -69 -29 -74 3 -6 2 -7 -4 -4
-9 6 -123 -214 -158 -305 -10 -27 -22 -45 -28 -41 -6 3 -7 1 -3 -6 4 -6 2 -18
-4 -26 -7 -8 -10 -24 -7 -34 3 -11 0 -22 -5 -23 -6 -2 -12 -17 -14 -34 -2 -16
-8 -41 -14 -54 -10 -24 -10 -24 -6 5 l5 30 -14 -30 c-8 -16 -14 -38 -15 -47 0
-9 -4 -19 -9 -22 -5 -3 -12 -23 -15 -43 -6 -34 -49 -166 -93 -290 -9 -24 -19
-40 -24 -37 -5 3 -9 -3 -9 -12 0 -10 -3 -15 -6 -12 -7 7 50 211 121 438 29 91
56 176 60 189 5 16 4 21 -4 17 -7 -5 -9 -1 -5 8 3 9 10 14 14 11 5 -3 6 4 3
15 -3 11 -9 23 -14 25 -4 3 -6 12 -2 20 4 11 -2 15 -21 15 -14 0 -26 5 -26 10
0 6 -7 10 -16 10 -8 0 -12 5 -9 10 3 6 -1 10 -9 10 -12 0 -14 7 -9 30 3 19 1
30 -6 30 -6 0 -11 -7 -11 -15 0 -8 -4 -15 -10 -15 -5 0 -8 -6 -6 -12 1 -7 1
-10 -1 -5 -3 4 -9 5 -14 2 -5 -4 -6 2 -2 11 5 13 2 16 -13 12 -15 -4 -20 0
-21 16 -1 12 -6 38 -11 59 -6 21 -6 39 -1 43 5 3 9 11 9 17 0 7 -4 6 -10 -3
-5 -8 -10 -12 -10 -9 0 12 40 122 49 133 19 24 50 125 40 131 -5 4 -9 3 -8 -2
4 -22 -2 -43 -11 -38 -6 4 -11 -6 -11 -22 -1 -16 -3 -21 -6 -11 -4 16 -5 16
-21 0 -10 -10 -33 -39 -51 -64 -19 -26 -38 -45 -43 -42 -5 3 -8 2 -7 -3 3 -20
-2 -23 -17 -8 -9 8 -13 22 -10 30 4 13 2 13 -14 5 -17 -9 -20 -8 -20 10 0 11
-4 20 -10 20 -5 0 -10 -4 -10 -10 0 -5 -5 -10 -11 -10 -6 0 -9 9 -6 20 3 11 1
23 -5 26 -5 3 -7 16 -4 28 5 21 5 21 -14 -1 -25 -31 -32 -29 -15 5 8 15 13 34
10 42 -3 8 17 58 44 110 26 52 78 154 115 225 36 72 73 135 81 141 8 6 12 14
8 17 -3 4 1 7 10 7 10 0 17 4 17 10 0 14 202 218 220 222 8 2 17 5 20 8 8 8
64 49 69 50 2 0 -2 -6 -8 -13z m2769 -177 c6 -11 8 -20 6 -20 -3 0 -10 9 -16
20 -6 11 -8 20 -6 20 3 0 10 -9 16 -20z m-2010 -20 c0 -5 -5 -10 -11 -10 -5 0
-7 5 -4 10 3 6 8 10 11 10 2 0 4 -4 4 -10z m-389 -707 c-12 -20 -14 -14 -5 12
4 9 9 14 11 11 3 -2 0 -13 -6 -23z m-727 -1072 c3 -5 -1 -14 -8 -20 -12 -10
-13 -8 -9 8 6 23 9 25 17 12z m-512 -163 c-7 -7 -12 -8 -12 -2 0 14 12 26 19
19 2 -3 -1 -11 -7 -17z m-136 -145 c-18 -34 -66 -100 -66 -90 0 9 71 117 77
117 2 0 -3 -12 -11 -27z m-655 -66 c-10 -9 -11 -8 -5 6 3 10 9 15 12 12 3 -3
0 -11 -7 -18z m249 -152 c0 -5 -5 -3 -10 5 -5 8 -10 20 -10 25 0 6 5 3 10 -5
5 -8 10 -19 10 -25z m-69 -108 c-10 -9 -11 -8 -5 6 3 10 9 15 12 12 3 -3 0
-11 -7 -18z m1156 4 c-1 -4 14 -21 33 -39 29 -26 33 -33 20 -42 -8 -5 -40 -10
-70 -10 -54 0 -56 1 -54 28 2 47 4 53 14 47 6 -3 7 1 4 9 -3 9 -1 16 5 16 6 0
11 -4 11 -10 0 -5 5 -10 11 -10 6 0 9 7 6 14 -4 10 -1 13 8 10 8 -3 13 -9 12
-13z m203 -8 c23 -29 14 -43 -28 -43 -22 0 -142 55 -142 65 0 3 33 5 74 5 69
0 76 -2 96 -27z m2991 13 c-33 -39 -161 -66 -147 -30 3 8 2 12 -4 9 -6 -3 -10
-2 -10 4 0 20 36 30 104 31 58 0 67 -2 57 -14z m-4420 -117 c-5 -13 -10 -19
-10 -12 -1 15 10 45 15 40 3 -2 0 -15 -5 -28z m-37 -45 c4 -9 2 -13 -5 -8 -7
4 -9 -1 -5 -17 3 -13 3 -18 0 -11 -3 6 -10 10 -15 6 -5 -3 -4 6 3 20 13 30 14
31 22 10z m3992 -102 c42 -29 -3 -86 -51 -64 -29 13 -32 34 -9 56 16 17 42 20
60 8z m-4091 -32 c-16 -31 -9 -39 15 -17 8 6 6 2 -5 -11 -11 -13 -21 -19 -23
-13 -2 6 -8 9 -13 5 -5 -3 0 11 12 30 25 44 36 48 14 6z m2003 21 c8 -4 12
-19 10 -32 -4 -34 -61 -40 -78 -9 -6 12 -9 28 -6 36 6 15 53 19 74 5z m-2380
-56 c-3 -3 -9 2 -12 12 -6 14 -5 15 5 6 7 -7 10 -15 7 -18z m362 -39 c0 -2 -8
-10 -17 -17 -16 -13 -17 -12 -4 4 13 16 21 21 21 13z m1897 -86 c31 -24 99
-27 131 -5 17 13 26 13 43 5 11 -7 39 -13 62 -15 28 -2 47 -10 59 -25 23 -29
20 -73 -5 -78 -10 -2 -34 -21 -54 -42 -19 -22 -43 -42 -54 -45 -11 -4 -17 -11
-14 -16 4 -5 0 -9 -7 -10 -7 0 -35 -3 -62 -6 -97 -10 -216 42 -236 102 -8 24
-18 35 -31 35 -10 0 -19 5 -19 10 0 6 -9 19 -20 30 -12 12 -18 25 -15 29 9 16
102 33 150 28 37 -4 45 -2 41 9 -7 19 1 18 31 -6z m2723 -94 c0 -2 -8 -10 -17
-17 -16 -13 -17 -12 -4 4 13 16 21 21 21 13z m-3105 -56 c3 -5 2 -10 -4 -10
-5 0 -13 5 -16 10 -3 6 -2 10 4 10 5 0 13 -4 16 -10z m-769 -32 c-8 -13 -15
-26 -15 -31 0 -4 -5 -13 -11 -20 -5 -6 -32 -40 -60 -74 -28 -35 -55 -63 -61
-63 -6 0 -7 -4 -4 -10 3 -5 -1 -10 -10 -10 -9 0 -14 -4 -11 -8 3 -5 -9 -22
-27 -38 -17 -16 -24 -20 -14 -8 25 30 21 41 -6 18 -13 -10 4 8 38 41 34 33 54
55 46 49 -46 -32 -37 -19 48 74 52 56 96 102 98 102 2 0 -3 -10 -11 -22z
m5229 -11 c57 -39 206 -184 210 -203 1 -11 7 -18 12 -17 14 3 94 -139 131
-232 17 -44 53 -163 79 -265 45 -177 47 -191 47 -330 1 -127 -2 -153 -22 -210
-32 -89 -94 -189 -139 -225 l-38 -29 42 48 c50 57 108 172 124 246 15 70 6
278 -15 368 -10 40 -20 72 -22 69 -2 -2 -8 -57 -14 -123 -5 -65 -17 -146 -25
-179 -21 -82 -80 -219 -121 -282 -19 -28 -34 -54 -34 -56 0 -13 -81 -126 -123
-173 -26 -28 -43 -55 -39 -59 4 -5 2 -6 -3 -2 -6 3 -65 -49 -132 -116 -93 -95
-129 -139 -159 -196 -41 -80 -117 -170 -174 -206 -25 -16 -55 -57 -105 -141
-86 -146 -95 -162 -141 -247 -21 -38 -43 -71 -50 -74 -7 -2 -11 -10 -8 -16 2
-7 -4 -17 -14 -24 -24 -14 -45 -3 -32 17 8 13 10 12 10 -3 0 -10 4 -16 9 -13
5 3 7 15 4 26 -3 11 -10 17 -16 13 -6 -3 -7 -1 -3 6 4 6 11 9 16 6 4 -3 11 3
14 12 4 9 1 20 -6 25 -10 6 -9 8 3 8 9 0 21 10 28 23 6 12 17 31 24 42 33 53
61 111 58 124 -1 8 2 10 10 5 7 -4 10 -3 6 3 -4 5 2 19 13 30 10 12 17 23 14
26 -3 2 5 21 17 41 12 20 20 39 17 41 -2 3 -22 -5 -44 -17 -21 -11 -84 -33
-139 -49 -55 -15 -154 -44 -220 -63 -129 -39 -150 -42 -161 -24 -5 8 0 9 14 6
12 -4 20 -2 17 2 -3 5 9 11 25 15 17 4 41 17 53 29 13 13 44 31 69 41 26 9 55
26 64 36 9 11 21 19 26 19 15 0 35 24 30 38 -2 6 -8 12 -13 12 -6 0 -8 -3 -6
-7 7 -11 -317 -6 -378 5 -45 9 -40 10 56 11 121 1 254 23 313 52 22 10 44 19
49 19 6 0 15 7 21 15 6 9 21 17 33 18 12 0 20 4 17 8 -2 4 3 9 11 13 8 3 15 1
15 -4 0 -17 18 -11 39 11 26 28 158 285 191 374 15 39 32 69 38 67 14 -3 16
15 2 20 -6 2 -6 16 2 40 6 21 15 35 19 32 5 -2 6 -12 3 -22 -5 -15 -5 -15 6 1
6 9 8 22 4 28 -9 15 36 1 53 -16 25 -25 -10 -208 -66 -344 -16 -39 -26 -71
-23 -71 3 0 20 16 39 35 38 39 80 127 118 246 26 84 95 406 95 447 0 14 4 20
10 17 7 -4 8 3 4 21 -6 23 -4 26 10 21 10 -4 15 -3 11 3 -3 6 -1 10 4 10 11 0
17 -78 13 -155 -7 -106 -62 -301 -158 -550 -7 -19 -7 -19 13 -2 11 9 24 17 29
17 34 2 150 159 206 280 82 175 119 303 133 464 5 52 10 74 16 65 14 -22 10
-139 -7 -229 -8 -45 -12 -85 -9 -89 11 -10 34 29 41 68 3 20 12 46 20 58 17
27 34 130 34 206 0 31 4 57 8 57 9 0 15 38 15 90 0 19 2 29 4 23 3 -7 13 -13
23 -13 10 0 21 6 23 13 4 7 8 3 13 -11 l6 -22 28 29 c18 19 32 26 41 20 17
-10 29 7 29 42 0 41 -48 175 -93 259 -50 93 -123 203 -196 295 -99 123 -181
242 -181 262 0 10 53 -8 85 -30z m-931 -22 c-4 -8 -8 -15 -10 -15 -2 0 -4 7
-4 15 0 8 4 15 10 15 5 0 7 -7 4 -15z m307 -38 c-10 -9 -11 -8 -5 6 3 10 9 15
12 12 3 -3 0 -11 -7 -18z m-71 -47 c-8 -5 -17 -7 -19 -4 -3 3 1 9 9 14 8 5 17
7 19 4 3 -3 -1 -9 -9 -14z m-6482 -28 c2 -7 -3 -12 -12 -12 -9 0 -16 7 -16 16
0 17 22 14 28 -4z m6477 3 c-11 -8 -27 -21 -36 -30 -10 -10 -23 -13 -35 -8
-18 7 -18 6 -1 -11 16 -17 16 -20 2 -35 -37 -42 8 -73 66 -44 21 11 33 11 49
3 25 -13 25 -22 0 -45 -11 -10 -20 -24 -20 -32 0 -7 -5 -13 -12 -13 -6 0 -8
-3 -5 -7 15 -14 -124 -169 -168 -187 -30 -13 -30 -14 -29 -90 0 -42 -3 -76 -7
-76 -18 0 -40 63 -38 108 1 26 -3 57 -9 69 -7 12 -12 37 -12 56 0 22 -6 37
-16 41 -8 3 -13 2 -10 -3 3 -5 -1 -11 -9 -15 -9 -3 -15 0 -15 9 0 8 -4 15 -10
15 -5 0 -8 -15 -6 -32 3 -18 5 -45 5 -60 1 -16 6 -28 11 -28 6 0 9 3 8 8 0 4
2 15 7 25 13 30 36 2 24 -30 -5 -13 -7 -29 -4 -34 4 -5 0 -6 -8 -3 -12 4 -39
-35 -41 -60 -2 -16 -33 -29 -52 -22 -11 4 -20 7 -22 6 -1 0 -9 5 -16 12 -15
16 -14 71 2 91 7 8 13 26 14 40 1 14 7 25 12 24 6 -1 11 7 12 18 2 27 22 65
35 65 6 0 7 5 4 10 -3 6 1 10 9 10 9 0 16 8 16 18 0 18 12 32 55 70 12 9 15
13 8 8 -10 -6 -12 -4 -7 8 3 9 10 16 14 16 4 0 18 10 32 23 37 32 81 63 83 57
1 -3 9 3 19 13 10 9 26 17 36 17 11 0 18 6 16 13 -1 6 -1 9 1 5 2 -3 16 0 31
8 34 18 43 17 17 -1z m-6065 -89 c0 -3 -4 -8 -10 -11 -5 -3 -10 -1 -10 4 0 6
5 11 10 11 6 0 10 -2 10 -4z m6150 -16 c0 -5 -2 -10 -4 -10 -3 0 -8 5 -11 10
-3 6 -1 10 4 10 6 0 11 -4 11 -10z m-7020 -126 c0 -3 -7 -12 -15 -20 -13 -14
-15 -13 -15 5 0 12 6 21 15 21 8 0 15 -3 15 -6z m2696 -26 c5 -7 3 -8 -6 -3
-9 6 -11 4 -5 -5 6 -10 10 -10 19 2 6 8 17 13 25 10 11 -4 11 -6 0 -13 -11 -7
-11 -9 2 -9 9 0 22 -7 29 -15 9 -10 9 -15 1 -15 -6 0 -11 -4 -11 -10 0 -5 3
-9 8 -8 16 3 60 -21 66 -37 25 -65 12 -155 -22 -155 -10 0 -28 -9 -39 -20 -20
-18 -22 -18 -27 -2 -10 31 -9 106 3 135 6 15 8 27 5 27 -4 0 0 8 7 17 10 11
10 14 2 9 -9 -5 -13 -1 -13 13 0 25 -36 51 -70 51 -24 0 -23 -1 8 -17 21 -10
31 -21 28 -30 -3 -8 -2 -12 3 -9 5 3 11 0 13 -7 6 -16 -34 -187 -44 -187 -4 0
-12 8 -17 19 -12 21 -3 93 10 85 5 -3 9 1 9 8 0 16 -15 40 -24 39 -23 -3 -25
2 -11 35 8 20 12 40 9 45 -9 16 -24 10 -35 -15 -13 -28 -39 -24 -39 5 0 13 5
17 17 12 11 -4 14 -3 9 5 -4 8 0 12 11 12 10 0 26 9 36 20 19 23 33 25 43 8z
m4441 -130 c-3 -8 -6 -5 -6 6 -1 11 2 17 5 13 3 -3 4 -12 1 -19z m-4507 -128
c0 -90 21 -222 50 -320 12 -43 12 -43 0 -35 -5 3 -8 0 -5 -7 8 -21 -49 -41
-95 -33 -21 4 -47 2 -56 -3 -25 -14 -43 8 -60 71 -26 97 -11 230 31 282 9 11
13 14 9 6 -5 -10 -3 -12 5 -7 7 5 10 15 7 23 -4 8 -2 11 5 7 7 -4 9 0 5 12 -6
19 17 52 57 83 16 12 17 12 11 -5 -5 -18 -5 -18 6 -1 6 9 8 22 5 27 -3 6 1 7
9 4 13 -5 16 -25 16 -104z m4501 79 c-5 -13 -10 -19 -10 -12 -1 15 10 45 15
40 3 -2 0 -15 -5 -28z m-290 -73 c66 -80 93 -176 87 -300 -8 -148 -67 -286
-190 -443 -100 -127 -211 -223 -268 -230 -38 -5 -215 31 -233 47 -5 4 8 21 28
36 242 189 335 291 408 449 49 108 72 203 88 368 8 87 17 136 23 134 6 -2 32
-29 57 -61z m326 22 c-3 -7 -5 -2 -5 12 0 14 2 19 5 13 2 -7 2 -19 0 -25z
m-48 10 c0 -7 -4 -22 -9 -33 -7 -17 -9 -15 -9 13 -1 17 4 32 9 32 6 0 10 -6 9
-12z m55 -55 c-7 -2 -10 -13 -7 -23 3 -11 1 -20 -5 -20 -5 0 -10 -6 -9 -12 1
-34 -4 -49 -14 -42 -8 4 -9 0 -4 -15 5 -15 3 -19 -8 -16 -8 4 -19 -4 -25 -17
l-12 -23 6 24 c4 16 3 21 -5 17 -15 -10 -15 -10 19 69 16 39 30 63 30 55 1 -9
5 -6 12 8 9 17 14 20 22 11 8 -8 8 -13 0 -16z m-464 -38 c0 -8 -3 -16 -7 -18
-5 -3 -8 5 -8 18 0 13 3 21 8 18 4 -2 7 -10 7 -18z m-5150 -98 c0 -2 -12 -14
-27 -28 l-28 -24 24 28 c23 25 31 32 31 24z m5520 -48 c0 8 2 12 5 9 3 -3 2
-13 -1 -22 -5 -13 -9 -14 -14 -5 -5 7 -15 -5 -28 -34 -30 -68 -36 -91 -22 -82
7 4 5 -6 -5 -24 -9 -17 -13 -36 -10 -41 3 -6 -1 -20 -9 -32 -9 -12 -16 -17
-16 -10 0 7 -4 10 -10 7 -5 -3 -10 1 -10 9 0 9 5 16 10 16 6 0 10 -5 10 -11 0
-5 5 -7 10 -4 15 9 12 25 -5 25 -18 0 -18 5 -4 31 5 11 14 17 20 14 5 -4 9 -2
9 4 0 5 -4 11 -8 13 -5 2 7 37 25 78 26 56 37 71 43 60 8 -13 10 -13 10 -1z
m-100 -264 c0 -3 -6 -4 -12 -2 -8 1 -12 -6 -10 -17 2 -11 -1 -15 -7 -11 -6 3
-12 0 -12 -7 -1 -7 -2 -18 -3 -25 -1 -13 -46 -58 -46 -46 1 4 9 26 20 48 11
22 19 46 20 53 0 6 5 12 11 12 5 0 7 5 3 11 -4 8 0 8 15 0 11 -7 21 -14 21
-16z m-4963 -267 c-3 -8 -6 -5 -6 6 -1 11 2 17 5 13 3 -3 4 -12 1 -19z m943
-7 c0 -5 8 -12 18 -16 9 -3 35 -22 58 -43 22 -20 64 -53 92 -72 29 -19 52 -38
52 -42 0 -3 -26 -16 -57 -27 -32 -12 -48 -19 -35 -17 39 7 24 -9 -25 -27 -56
-20 -98 -23 -87 -5 4 7 3 8 -4 4 -22 -14 -114 48 -205 139 l-92 90 95 3 c52 2
98 6 103 11 11 11 87 13 87 2z m-1356 -17 c3 -8 2 -12 -4 -9 -6 3 -10 10 -10
16 0 14 7 11 14 -7z m403 -201 c-2 -32 -3 -8 -3 52 0 61 1 87 3 58 2 -29 2
-78 0 -110z m-420 35 c-2 -18 -4 -6 -4 27 0 33 2 48 4 33 2 -15 2 -42 0 -60z
m6323 58 c0 -2 -8 -10 -17 -17 -16 -13 -17 -12 -4 4 13 16 21 21 21 13z
m-1010 -21 c-7 -8 -17 -12 -23 -8 -6 4 -3 9 9 14 27 11 28 11 14 -6z m92 -27
c-2 -10 -6 -18 -7 -18 -1 0 -5 8 -7 18 -3 11 0 19 7 19 7 0 10 -8 7 -19z m32
3 c3 -5 -1 -11 -9 -14 -9 -4 -12 -1 -8 9 6 16 10 17 17 5z m-140 -13 c-4 -7
-3 -8 4 -4 22 13 55 16 71 5 13 -8 12 -9 -6 -4 -12 3 -24 1 -28 -5 -4 -6 -3
-10 2 -9 20 3 27 -2 14 -10 -23 -15 5 -44 29 -31 21 11 22 -12 1 -49 -10 -19
-15 -21 -22 -10 -6 10 -8 7 -7 -11 2 -14 -2 -24 -8 -23 -5 1 -16 -7 -23 -19
-10 -16 -10 -19 1 -12 7 4 1 -8 -14 -27 -15 -18 -31 -33 -37 -31 -6 1 -11 -4
-11 -11 0 -7 -16 -28 -35 -47 -19 -19 -35 -32 -35 -29 0 3 -21 -14 -47 -38
-26 -23 -53 -43 -60 -43 -7 0 -13 -4 -13 -9 0 -12 -212 -114 -291 -140 -90
-29 -101 -31 -204 -32 -137 -1 -335 40 -462 96 -29 13 -53 22 -53 19 0 -8 83
-43 190 -81 72 -26 84 -33 50 -27 -79 11 -232 74 -329 134 -50 31 -30 35 28 6
28 -15 51 -22 51 -17 0 5 -6 12 -12 14 -10 4 -10 6 -1 6 6 1 15 -3 18 -9 3 -5
11 -10 16 -10 6 0 7 4 4 10 -3 5 11 3 32 -4 64 -23 242 -41 268 -27 5 3 25 6
45 8 19 2 39 8 45 14 5 5 17 9 27 9 9 0 33 9 53 20 20 11 42 20 51 20 8 0 12
5 9 10 -3 6 1 10 9 10 9 0 16 5 16 10 0 6 9 10 20 10 11 0 20 4 20 9 0 5 14
14 30 21 17 7 30 16 30 21 0 5 9 9 21 9 11 0 17 5 14 10 -3 6 0 10 8 10 8 0
20 7 27 15 7 9 15 13 18 10 3 -2 13 5 23 16 9 11 21 20 26 21 4 0 6 5 5 12 -2
6 0 8 3 4 11 -11 67 21 59 34 -5 7 -3 8 5 4 7 -5 21 0 32 10 15 13 16 19 7 26
-9 5 -4 8 13 8 25 0 47 24 31 33 -4 2 -2 2 5 1 6 -2 17 4 23 12 7 8 9 14 5 14
-4 0 -2 7 5 15 9 11 16 12 26 4 9 -8 15 -5 24 11 9 16 15 19 23 11 15 -15 27
-14 27 3 0 10 7 12 22 8 16 -4 19 -2 13 8 -6 10 -3 12 13 8 16 -5 60 1 90 11
2 1 0 -4 -4 -11z m-5195 -34 c1 16 5 15 26 -10 41 -47 45 -53 45 -66 0 -16 23
-37 64 -58 15 -8 32 -25 37 -37 9 -24 24 -30 34 -13 3 5 26 -30 52 -78 62
-117 62 -117 112 -199 25 -40 49 -69 54 -66 6 3 7 1 3 -6 -10 -16 91 -146 178
-229 179 -169 364 -270 537 -291 108 -14 158 -4 252 51 27 16 47 23 45 17 -7
-21 -133 -78 -233 -106 -87 -23 -118 -27 -240 -27 -114 1 -155 5 -220 23 -98
27 -238 93 -325 152 -36 24 -78 51 -93 59 -16 8 -51 39 -78 70 -27 30 -58 64
-69 75 -11 12 -20 26 -20 33 0 8 -5 10 -12 6 -7 -4 -8 -3 -4 4 4 7 -8 27 -29
47 -19 20 -35 41 -35 48 0 7 10 -3 21 -20 34 -53 34 -38 0 22 -97 172 -134
348 -121 585 2 48 3 51 10 25 5 -18 8 -22 9 -11z m5311 1 c11 -13 10 -14 -4
-9 -9 3 -16 10 -16 15 0 13 6 11 20 -6z m-5423 -102 c-2 -21 -4 -6 -4 32 0 39
2 55 4 38 2 -18 2 -50 0 -70z m420 -45 c-2 -13 -4 -3 -4 22 0 25 2 35 4 23 2
-13 2 -33 0 -45z m20 -20 c-2 -13 -4 -3 -4 22 0 25 2 35 4 23 2 -13 2 -33 0
-45z m7199 22 c0 -11 -4 -20 -8 -20 -10 0 -11 24 -1 33 9 9 9 10 9 -13z m21
-12 c-3 -8 -6 -5 -6 6 -1 11 2 17 5 13 3 -3 4 -12 1 -19z m-7337 -2 c0 -3 -4
-8 -10 -11 -5 -3 -10 -1 -10 4 0 6 5 11 10 11 6 0 10 -2 10 -4z m-1810 -56
c-24 -15 -36 -11 -14 4 10 8 21 12 24 10 2 -3 -2 -9 -10 -14z m1917 -17 c-3
-10 -5 -4 -5 12 0 17 2 24 5 18 2 -7 2 -21 0 -30z m-1957 -1 c0 -13 -59 -43
-72 -36 -6 4 -8 3 -5 -4 9 -14 -123 -146 -135 -134 -5 5 2 22 18 41 21 25 29
29 36 19 7 -9 8 -8 4 6 -4 12 1 27 15 43 23 24 46 32 33 11 -4 -7 -3 -8 5 -4
6 4 9 12 5 17 -3 6 2 16 12 24 15 10 22 11 33 2 11 -9 13 -9 8 0 -4 7 0 13 10
16 29 8 33 7 33 -1z m1983 -72 l5 -75 -14 45 c-8 26 -12 59 -9 79 4 18 8 31 9
30 2 -2 6 -38 9 -79z m3599 -60 c18 -11 26 -20 18 -20 -15 0 -72 39 -58 40 4
0 22 -9 40 -20z m135 -224 c-9 -22 5 -27 21 -8 12 14 12 13 -1 -8 -17 -29 -42
-37 -62 -20 -16 13 -20 31 -7 29 4 -1 14 -1 22 0 13 1 13 2 0 11 -12 8 -10 10
9 10 16 0 21 -4 18 -14z m530 -2 c-3 -3 -12 -4 -19 -1 -8 3 -5 6 6 6 11 1 17
-2 13 -5z m-547 -54 c20 -6 21 -8 5 -8 -11 0 -29 3 -40 8 -25 11 1 11 35 0z
m1243 -76 c9 -9 -34 -101 -79 -168 -21 -32 -45 -68 -52 -80 -11 -19 -12 -16
-6 19 9 51 73 205 86 205 5 0 6 5 2 12 -4 6 -3 8 4 4 6 -3 13 -2 17 4 7 11 19
13 28 4z m28 -27 c-10 -9 -11 -8 -5 6 3 10 9 15 12 12 3 -3 0 -11 -7 -18z
m-30 -70 c-10 -9 -11 -8 -5 6 3 10 9 15 12 12 3 -3 0 -11 -7 -18z m-6631 -108
c0 -17 -29 -30 -47 -20 -10 6 -14 11 -9 11 5 0 3 7 -4 15 -17 21 -7 29 19 16
18 -10 20 -9 15 6 -5 16 -4 16 10 -1 9 -11 16 -23 16 -27z m3840 -35 c0 -2 -7
-4 -15 -4 -8 0 -15 4 -15 10 0 5 7 7 15 4 8 -4 15 -8 15 -10z m70 -34 c0 -5
-9 -10 -20 -10 -11 0 -20 5 -20 10 0 6 9 10 20 10 11 0 20 -4 20 -10z m-3915
-30 c-3 -5 -11 -10 -16 -10 -6 0 -7 5 -4 10 3 6 11 10 16 10 6 0 7 -4 4 -10z
m1025 -105 c-7 -9 -15 -13 -19 -10 -3 3 1 10 9 15 21 14 24 12 10 -5z m-30
-35 c0 -5 -4 -10 -10 -10 -5 0 -10 5 -10 10 0 6 5 10 10 10 6 0 10 -4 10 -10z
m2400 -310 c0 -5 -2 -10 -4 -10 -3 0 -8 5 -11 10 -3 6 -1 10 4 10 6 0 11 -4
11 -10z m-1870 -40 c-6 -11 -13 -20 -16 -20 -2 0 0 9 6 20 6 11 13 20 16 20 2
0 0 -9 -6 -20z m-1170 -620 c-8 -5 -19 -10 -25 -10 -5 0 -3 5 5 10 8 5 20 10
25 10 6 0 3 -5 -5 -10z m69 -4 c-2 -2 -20 -6 -39 -10 -25 -4 -31 -3 -20 4 14
9 69 15 59 6z m-21 -30 c-7 -8 -15 -12 -17 -11 -5 6 10 25 20 25 5 0 4 -6 -3
-14z m-35 -15 c11 -11 -2 -15 -40 -14 -19 1 -15 -15 5 -20 13 -4 11 -5 -5 -6
-13 0 -23 4 -23 9 0 6 -12 10 -27 11 -16 0 -22 3 -15 6 6 2 12 10 12 17 0 15
77 13 93 -3z"/>
<path d="M2635 5449 c-4 -6 -5 -12 -2 -15 2 -3 7 2 10 11 7 17 1 20 -8 4z"/>
<path d="M8018 4143 c7 -3 16 -2 19 1 4 3 -2 6 -13 5 -11 0 -14 -3 -6 -6z"/>
<path d="M7265 5230 c3 -5 8 -10 11 -10 2 0 4 5 4 10 0 6 -5 10 -11 10 -5 0
-7 -4 -4 -10z"/>
<path d="M7020 5050 c0 -5 7 -10 16 -10 8 0 12 5 9 10 -3 6 -10 10 -16 10 -5
0 -9 -4 -9 -10z"/>
<path d="M6880 5025 c0 -8 4 -15 10 -15 5 0 7 7 4 15 -4 8 -8 15 -10 15 -2 0
-4 -7 -4 -15z"/>
<path d="M7045 4980 c-3 -5 -1 -10 4 -10 6 0 11 5 11 10 0 6 -2 10 -4 10 -3 0
-8 -4 -11 -10z"/>
<path d="M2836 4861 c-4 -7 -5 -15 -2 -18 9 -9 19 4 14 18 -4 11 -6 11 -12 0z"/>
<path d="M7417 4779 c7 -7 15 -10 18 -7 3 3 -2 9 -12 12 -14 6 -15 5 -6 -5z"/>
<path d="M7390 4735 c0 -8 2 -15 4 -15 2 0 6 7 10 15 3 8 1 15 -4 15 -6 0 -10
-7 -10 -15z"/>
<path d="M7207 4333 c-4 -3 -7 -11 -7 -17 0 -6 5 -5 12 2 6 6 9 14 7 17 -3 3
-9 2 -12 -2z"/>
<path d="M7247 3856 c-4 -10 -1 -13 9 -9 7 3 14 9 14 14 0 14 -17 10 -23 -5z"/>
<path d="M5970 3470 c8 -5 20 -10 25 -10 6 0 3 5 -5 10 -8 5 -19 10 -25 10 -5
0 -3 -5 5 -10z"/>
<path d="M205 3589 c-4 -6 -5 -12 -2 -15 2 -3 7 2 10 11 7 17 1 20 -8 4z"/>
<path d="M147 3533 c-4 -3 -7 -11 -7 -17 0 -6 5 -5 12 2 6 6 9 14 7 17 -3 3
-9 2 -12 -2z"/>
<path d="M6731 10236 c2 -2 31 -19 64 -37 159 -85 340 -224 514 -394 191 -186
355 -390 466 -580 32 -55 63 -105 69 -112 8 -9 46 -1 156 33 267 82 419 124
792 218 519 132 832 234 1126 367 51 23 53 23 46 4 -3 -8 -29 -32 -58 -52 -61
-46 -49 -36 -216 -170 -184 -149 -277 -216 -347 -252 l-58 -30 35 -2 c19 -1
41 -2 48 -2 23 1 12 -12 -40 -47 -29 -19 -106 -82 -173 -140 -66 -58 -181
-156 -255 -218 -74 -63 -162 -140 -195 -171 -33 -31 -135 -121 -228 -200
l-167 -144 6 -36 c3 -20 14 -81 25 -136 28 -148 56 -383 74 -620 35 -465 96
-687 249 -904 24 -36 42 -69 40 -73 -3 -5 0 -7 7 -6 6 2 14 -3 17 -11 3 -10 0
-11 -9 -5 -12 7 -12 5 0 -9 7 -9 17 -15 21 -12 4 2 38 -30 75 -73 86 -96 149
-159 198 -196 36 -28 42 -29 135 -28 138 3 218 -24 251 -85 18 -34 13 -60 -17
-90 l-29 -28 36 -28 c20 -16 50 -36 66 -44 53 -27 60 -53 14 -53 -20 0 -28 4
-23 12 4 7 3 8 -5 4 -6 -4 -65 15 -130 43 -66 28 -124 51 -130 51 -13 0 0 -41
41 -122 10 -21 5 -23 -14 -5 -35 33 -118 97 -158 122 -41 25 -128 105 -115
105 15 0 -69 79 -140 133 -125 95 -282 258 -355 369 -35 54 -66 96 -68 93 -7
-7 38 -204 75 -325 35 -118 77 -208 155 -340 114 -193 357 -476 526 -611 84
-67 271 -163 487 -249 110 -44 389 -185 513 -258 56 -34 105 -62 107 -62 3 0
5 1217 5 2705 l0 2705 -1757 0 c-966 0 -1754 -2 -1752 -4z m2324 -2207 c-5 -7
-12 -6 -23 3 -12 10 -14 10 -8 1 4 -7 2 -13 -3 -13 -7 0 -11 22 -11 53 l0 52
26 -43 c14 -23 22 -47 19 -53z m-212 -742 c19 -29 37 -60 40 -70 6 -16 3 -18
-23 -13 -17 3 -43 9 -59 12 -19 3 -42 21 -65 51 -20 26 -36 50 -36 54 0 13 84
36 97 26 7 -5 27 -32 46 -60z m1127 -737 c0 -13 -7 -20 -20 -20 -19 0 -27 20
-13 33 13 14 33 6 33 -13z m-1200 -410 c0 -5 -7 -10 -16 -10 -8 0 -12 5 -9 10
3 6 10 10 16 10 5 0 9 -4 9 -10z m-32 -33 c2 -11 -3 -17 -16 -17 -23 0 -37 26
-19 34 19 7 32 1 35 -17z"/>
<path d="M628 9510 c18 -11 35 -20 39 -20 4 0 35 -12 71 -26 35 -14 66 -23 69
-21 2 3 -5 8 -18 12 -17 6 -19 9 -8 17 10 6 7 7 -10 3 -18 -5 -22 -4 -16 6 6
9 4 11 -7 6 -9 -3 -21 0 -27 6 -6 6 -11 8 -11 4 0 -4 -24 2 -52 13 -66 25 -71
25 -30 0z"/>
<path d="M580 9516 c0 -3 9 -10 20 -16 11 -6 20 -8 20 -6 0 3 -9 10 -20 16
-11 6 -20 8 -20 6z"/>
<path d="M9405 9455 c-33 -16 -43 -24 -29 -24 28 -1 86 19 104 35 23 23 -16
16 -75 -11z"/>
<path d="M664 9455 c3 -18 16 -33 16 -17 0 6 17 -7 38 -28 54 -54 204 -148
289 -181 23 -8 24 -8 13 6 -11 13 -10 14 5 8 14 -5 17 -3 12 10 -3 9 -1 19 5
23 7 5 8 2 3 -6 -6 -9 -4 -11 4 -5 10 6 9 12 -5 24 -19 17 -194 101 -211 101
-11 0 -91 39 -82 40 4 0 26 -7 49 -15 24 -8 45 -13 47 -11 4 4 -162 66 -177
66 -4 0 -7 -7 -6 -15z"/>
<path d="M9548 9453 c10 -4 10 -8 0 -21 -9 -12 -6 -11 10 2 12 11 22 20 22 20
0 1 -10 2 -22 3 -13 0 -17 -1 -10 -4z"/>
<path d="M3345 9420 c3 -13 -1 -17 -11 -13 -8 3 -14 1 -12 -5 2 -6 -6 -18 -17
-26 -18 -14 -17 -15 20 -2 29 9 40 19 41 34 1 11 -5 23 -12 26 -8 3 -11 -2 -9
-14z"/>
<path d="M9328 9413 c6 -2 18 -2 25 0 6 3 1 5 -13 5 -14 0 -19 -2 -12 -5z"/>
<path d="M9505 9410 c-4 -6 -11 -7 -17 -4 -6 4 -8 2 -4 -4 3 -5 0 -12 -6 -15
-7 -2 -11 -7 -8 -10 3 -3 18 6 33 19 15 13 24 24 18 24 -5 0 -13 -5 -16 -10z"/>
<path d="M1220 9370 c-8 -5 -10 -10 -5 -10 6 0 17 5 25 10 8 5 11 10 5 10 -5
0 -17 -5 -25 -10z"/>
<path d="M8340 9219 c-36 -10 -138 -40 -225 -66 -84 -26 -272 -91 -291 -102
-11 -5 -72 -26 -136 -46 -65 -20 -121 -41 -124 -46 -3 -6 -13 -8 -21 -5 -8 3
-11 2 -8 -3 7 -12 -31 -24 -46 -15 -8 5 -9 3 -4 -6 6 -10 4 -12 -8 -7 -10 3
-17 2 -17 -3 0 -5 -7 -6 -17 -3 -10 4 -14 2 -10 -4 4 -6 0 -14 -9 -17 -9 -3
-12 -2 -9 4 4 6 -9 3 -29 -6 -19 -10 -33 -21 -30 -26 3 -4 -3 -5 -12 -1 -13 5
-15 3 -9 -7 5 -9 4 -11 -3 -6 -14 9 -92 -40 -92 -58 0 -39 26 -35 140 22 63
32 138 67 165 79 75 31 277 110 303 118 12 3 22 11 22 16 0 6 4 8 9 5 11 -7
71 16 71 27 0 5 10 5 21 2 15 -5 19 -4 15 4 -4 6 0 11 8 11 21 0 27 2 55 16
13 7 30 10 37 7 8 -3 14 0 14 7 0 6 4 9 9 6 14 -9 42 5 34 17 -4 6 0 8 10 4
10 -4 17 -2 17 4 0 7 11 9 25 7 14 -3 25 -2 25 2 0 4 15 11 33 15 17 4 37 9
44 10 46 11 80 28 80 40 0 8 -1 15 -1 14 -1 0 -17 -5 -36 -10z"/>
<path d="M9158 9180 c-134 -57 -598 -293 -598 -304 0 -1 9 -2 19 -2 11 0 18 3
15 7 -2 4 3 9 11 13 8 3 15 0 16 -7 0 -7 4 -3 9 8 5 11 9 15 9 9 1 -7 8 -14
16 -18 8 -3 14 -1 12 3 -1 5 1 8 4 7 3 0 13 5 22 12 9 8 22 10 28 6 7 -4 9 -3
5 4 -8 13 55 27 79 18 8 -3 14 -1 12 5 -1 8 83 49 101 49 2 0 -7 -11 -20 -24
-20 -21 -112 -86 -462 -328 -38 -26 -77 -48 -87 -48 -12 0 -20 -11 -24 -32 -4
-18 -16 -50 -27 -71 -19 -37 -21 -39 -56 -32 -66 12 -100 63 -82 126 6 21 4
31 -8 41 -13 11 -14 11 -8 0 5 -9 3 -13 -5 -12 -19 3 -59 -11 -59 -19 0 -4 -6
-8 -12 -8 -49 0 -460 -325 -526 -416 -13 -17 -12 -49 3 -122 8 -37 56 -209 60
-213 2 -2 14 2 27 9 23 12 23 12 5 -8 -17 -20 -16 -30 52 -339 39 -176 73
-338 77 -361 4 -24 9 -41 13 -39 4 3 5 -12 3 -32 -2 -21 0 -32 5 -25 5 6 8 -9
9 -36 1 -67 25 -201 35 -195 5 3 9 -3 10 -13 1 -13 3 -11 9 7 6 19 8 21 9 6 1
-11 3 -17 6 -14 5 5 -9 113 -20 163 -6 25 18 -25 42 -87 10 -27 20 -48 23 -48
9 0 -1 73 -11 86 -5 6 -6 26 -3 43 4 19 10 28 14 21 10 -16 34 15 26 35 -9 24
10 18 21 -7 l9 -21 23 24 c21 21 23 22 17 4 -4 -15 2 -25 24 -40 18 -12 30
-29 30 -42 0 -12 5 -25 10 -28 6 -3 10 -17 10 -31 0 -13 4 -24 9 -24 5 0 12
-17 16 -37 4 -25 9 -32 15 -23 7 11 9 10 13 -1 5 -17 4 -8 -24 139 -20 103
-20 115 -6 129 14 14 16 11 23 -33 4 -27 11 -58 15 -69 7 -15 8 -13 4 10 -2
17 -9 70 -15 120 -14 112 -36 269 -46 315 -4 19 -4 33 -1 30 7 -7 47 -168 47
-191 0 -11 5 -19 10 -19 6 0 10 7 10 16 0 8 5 12 10 9 6 -3 10 2 10 12 0 10 5
25 10 33 8 11 9 7 8 -17 -2 -18 2 -31 7 -30 15 3 7 63 -21 152 -22 67 -121
434 -155 569 -7 30 -7 42 3 49 9 6 8 7 -4 3 -12 -3 -22 2 -29 16 -10 19 -7 25
22 50 24 21 16 17 -28 -11 -108 -71 -80 -45 73 70 146 109 227 174 268 215 12
11 50 45 86 75 58 48 120 104 184 164 12 11 55 49 96 85 41 36 81 72 90 80 9
8 38 33 65 55 44 35 129 112 189 170 12 11 53 45 92 76 39 31 82 67 95 80 13
14 38 35 56 49 l32 25 -44 1 c-27 1 -67 -9 -107 -26z m-893 -819 c17 -7 17 -8
-8 -15 -18 -4 -35 -1 -50 9 -21 15 -21 15 8 14 17 0 39 -4 50 -8z m-370 -364
c-29 -16 -49 -18 -36 -3 5 6 20 12 33 13 22 2 22 1 3 -10z m-97 -60 c-43 -33
-149 -97 -136 -82 13 14 163 114 171 115 5 0 -11 -15 -35 -33z m309 -859 c-3
-8 -6 -5 -6 6 -1 11 2 17 5 13 3 -3 4 -12 1 -19z m-70 -100 c-3 -8 -6 -5 -6 6
-1 11 2 17 5 13 3 -3 4 -12 1 -19z m-188 -108 c0 -10 -3 -8 -9 5 -12 27 -12
43 0 25 5 -8 9 -22 9 -30z"/>
<path d="M990 9190 c-8 -5 -33 -7 -55 -5 l-40 4 40 -35 c22 -19 56 -47 75 -62
35 -27 116 -100 154 -137 12 -12 43 -39 70 -60 27 -22 59 -49 71 -60 12 -11
34 -31 51 -44 16 -13 52 -45 79 -70 43 -39 113 -101 209 -184 12 -10 59 -53
105 -95 108 -100 108 -99 116 -60 4 18 16 52 26 76 19 40 19 43 2 60 -34 34
-109 90 -258 192 -211 145 -295 207 -264 195 10 -4 20 -1 25 6 4 7 3 10 -4 5
-6 -3 -13 -2 -16 3 -3 4 11 11 31 14 29 5 42 1 65 -18 34 -28 39 -30 56 -13 9
9 12 8 12 -5 0 -19 15 -23 25 -7 8 13 -14 42 -25 35 -5 -3 -10 -1 -12 4 -9 23
-473 271 -507 271 -9 0 -23 -4 -31 -10z m397 -246 c-8 -8 -67 -13 -63 -5 3 4
19 8 37 9 17 0 29 -1 26 -4z"/>
<path d="M8173 8645 c-7 -8 -13 -16 -13 -19 0 -2 6 -6 13 -9 7 -3 13 5 13 19
1 13 1 24 0 24 0 -1 -7 -7 -13 -15z"/>
<path d="M2406 8639 c3 -6 1 -15 -6 -19 -10 -6 -9 -15 3 -39 11 -22 13 -39 7
-54 -7 -17 -9 -18 -9 -4 -1 10 -9 17 -21 17 -10 0 -40 12 -65 26 -37 20 -49
23 -61 14 -7 -7 -11 -17 -8 -22 3 -5 3 -20 0 -34 -10 -39 -53 -32 -124 20 -64
47 -121 80 -128 73 -5 -5 -11 -59 -13 -108 -1 -29 -6 -38 -22 -42 -19 -5 -21
-11 -16 -46 4 -30 1 -44 -13 -56 -29 -26 -13 -63 49 -111 85 -66 97 -76 81
-68 -8 4 -23 14 -32 22 -10 8 -24 12 -33 8 -9 -3 -13 -2 -10 4 3 5 -3 14 -13
19 -19 10 -20 5 -21 -90 -2 -98 21 -285 40 -324 5 -11 8 -36 5 -55 -2 -19 0
-38 6 -41 13 -8 18 -131 5 -146 -5 -7 -7 -13 -3 -13 3 0 1 -11 -4 -25 -5 -14
-12 -51 -14 -83 -4 -57 -4 -57 9 -22 17 44 19 24 4 -36 -9 -35 -9 -47 2 -61
12 -15 12 -16 -3 -10 -22 8 -22 -1 -3 -27 13 -17 15 -17 15 -4 0 9 4 20 10 23
6 3 8 -2 4 -12 -3 -10 7 5 21 32 36 70 86 199 130 335 21 63 60 180 87 260 97
286 128 383 123 388 -3 3 -5 0 -5 -7 0 -7 -5 -9 -12 -5 -8 5 -9 1 -4 -12 5
-13 4 -16 -3 -8 -14 13 24 127 78 234 l41 79 -27 20 c-27 22 -59 29 -47 10z
m-265 -506 c13 -16 12 -17 -3 -4 -10 7 -18 15 -18 17 0 8 8 3 21 -13z m119
-94 c0 -6 -4 -7 -10 -4 -5 3 -10 11 -10 16 0 6 5 7 10 4 6 -3 10 -11 10 -16z"/>
<path d="M2566 8503 c-6 -14 -5 -15 5 -6 7 7 10 15 7 18 -3 3 -9 -2 -12 -12z"/>
<path d="M5505 8510 c3 -5 8 -10 11 -10 2 0 4 5 4 10 0 6 -5 10 -11 10 -5 0
-7 -4 -4 -10z"/>
<path d="M5944 7867 c3 -10 6 -21 6 -23 0 -3 5 -2 10 1 6 3 10 5 10 3 0 -11
59 -171 59 -161 1 17 -47 165 -59 183 -9 13 -10 13 -10 0 0 -13 -2 -13 -11 0
-9 12 -10 12 -5 -3z"/>
<path d="M6065 7633 c3 -18 7 -48 10 -65 4 -27 4 -30 -5 -13 -9 18 -10 17 -5
-5 14 -67 34 -215 41 -300 5 -52 10 -84 12 -71 l4 23 29 -28 c16 -15 29 -31
29 -35 0 -12 53 -89 62 -89 4 0 8 -5 8 -12 0 -13 51 -91 63 -96 4 -2 7 -7 7
-12 0 -13 53 -90 62 -90 4 0 8 -6 8 -14 0 -21 69 -106 86 -106 8 0 20 14 26
31 l10 30 22 -20 c58 -54 44 6 -30 135 -31 55 -63 106 -70 115 -8 8 -14 18
-14 22 0 3 -24 46 -54 96 -29 49 -56 100 -60 114 -3 14 -22 46 -41 72 -20 25
-33 50 -30 55 4 6 -2 10 -12 11 -10 0 -13 3 -6 6 10 3 10 10 2 24 -5 11 -15
16 -21 13 -7 -4 -8 -3 -4 4 4 7 2 20 -4 29 -11 17 -11 17 -6 0 3 -11 2 -15 -4
-12 -6 3 -10 12 -10 19 0 22 -71 157 -80 151 -4 -3 -13 7 -19 22 -11 28 -11
28 -6 -4z m32 -55 c-3 -8 -6 -5 -6 6 -1 11 2 17 5 13 3 -3 4 -12 1 -19z"/>
<path d="M3846 7603 c-6 -14 -5 -15 5 -6 7 7 10 15 7 18 -3 3 -9 -2 -12 -12z"/>
<path d="M7479 7582 c6 -11 11 -29 11 -39 1 -10 14 -45 30 -78 26 -52 34 -45
10 10 -5 11 -16 42 -26 68 -9 26 -21 50 -26 54 -6 3 -5 -4 1 -15z"/>
<path d="M3826 7565 c-3 -8 -1 -15 4 -15 6 0 10 7 10 15 0 8 -2 15 -4 15 -2 0
-6 -7 -10 -15z"/>
<path d="M6960 7541 c0 -6 4 -13 10 -16 6 -3 7 1 4 9 -7 18 -14 21 -14 7z"/>
<path d="M7627 7519 c4 -13 8 -18 11 -10 2 7 -1 18 -6 23 -8 8 -9 4 -5 -13z"/>
<path d="M3796 7491 c-3 -4 -10 -20 -15 -34 -10 -25 -9 -26 8 -15 11 7 17 18
13 26 -3 10 -1 13 6 8 8 -5 10 -2 6 8 -7 18 -11 20 -18 7z"/>
<path d="M7631 7483 c0 -4 4 -17 9 -28 8 -19 9 -19 9 2 1 12 -3 25 -9 28 -5 3
-10 3 -9 -2z"/>
<path d="M7650 7411 c0 -11 4 -22 9 -25 4 -3 6 6 3 19 -5 30 -12 33 -12 6z"/>
<path d="M1973 7280 c0 -14 -3 -36 -8 -50 -10 -32 -2 -25 20 19 9 18 12 30 7
27 -6 -3 -13 2 -15 11 -3 11 -5 8 -4 -7z"/>
<path d="M3617 7173 c-3 -16 -2 -34 2 -40 4 -7 7 5 8 27 2 46 -2 52 -10 13z"/>
<path d="M6022 7180 c0 -14 2 -19 5 -12 2 6 2 18 0 25 -3 6 -5 1 -5 -13z"/>
<path d="M8196 7183 c-6 -14 -5 -15 5 -6 7 7 10 15 7 18 -3 3 -9 -2 -12 -12z"/>
<path d="M6031 7134 c0 -11 3 -14 6 -6 3 7 2 16 -1 19 -3 4 -6 -2 -5 -13z"/>
<path d="M3551 6918 c-29 -117 -55 -222 -58 -233 -5 -18 -5 -18 12 -2 10 10
15 20 12 23 -3 3 4 28 14 57 10 28 19 59 19 68 0 9 9 42 19 75 11 32 22 70 24
84 2 14 6 32 10 40 11 31 15 66 8 83 -4 11 -27 -62 -60 -195z"/>
<path d="M6042 7090 c0 -14 2 -19 5 -12 2 6 2 18 0 25 -3 6 -5 1 -5 -13z"/>
<path d="M6052 7015 c0 -16 2 -22 5 -12 2 9 2 23 0 30 -3 6 -5 -1 -5 -18z"/>
<path d="M7590 6981 c5 -11 15 -23 21 -27 6 -3 3 5 -6 20 -20 30 -30 35 -15 7z"/>
<path d="M7640 6916 c0 -2 8 -10 18 -17 15 -13 16 -12 3 4 -13 16 -21 21 -21
13z"/>
<path d="M7667 6809 c4 -13 8 -18 11 -10 2 7 -1 18 -6 23 -8 8 -9 4 -5 -13z"/>
<path d="M7697 6749 c4 -13 8 -18 11 -10 2 7 -1 18 -6 23 -8 8 -9 4 -5 -13z"/>
<path d="M7736 6727 c3 -10 9 -15 12 -12 3 3 0 11 -7 18 -10 9 -11 8 -5 -6z"/>
<path d="M7826 6717 c3 -10 9 -15 12 -12 3 3 0 11 -7 18 -10 9 -11 8 -5 -6z"/>
<path d="M6766 6558 c44 -77 438 -450 570 -538 l49 -32 -40 40 c-22 22 -46 47
-53 56 -7 9 -18 13 -24 10 -6 -4 -8 -3 -4 4 3 6 -8 21 -26 33 -57 40 -317 295
-310 305 3 6 -32 41 -39 38 -3 -2 -28 20 -55 47 -27 28 -57 55 -68 61 -18 10
-18 9 0 -24z"/>
<path d="M7540 6512 c0 -6 7 -17 15 -26 8 -8 15 -18 15 -23 0 -9 31 -46 86
-105 19 -20 34 -41 34 -46 0 -6 3 -12 8 -14 4 -1 24 -23 45 -47 35 -43 67 -61
67 -39 0 6 -7 8 -14 5 -9 -4 -13 -1 -10 7 9 24 -160 233 -185 228 -9 -2 -12 2
-8 11 3 8 -1 23 -9 34 -13 17 -14 17 -8 -2 5 -18 3 -17 -15 4 -12 13 -21 19
-21 13z"/>
<path d="M5920 6459 c-73 -34 -146 -59 -172 -59 -24 0 -246 -95 -272 -116 -12
-10 -16 -15 -9 -10 10 6 12 5 7 -8 -3 -9 -9 -16 -13 -16 -7 0 -31 -43 -31 -55
0 -9 34 3 38 13 2 7 8 9 13 6 6 -3 5 -12 -3 -22 -11 -14 -10 -15 6 -8 11 4 40
9 65 12 44 5 242 62 314 89 20 8 37 12 37 10 0 -3 9 2 19 12 15 14 61 140 61
167 0 10 -13 7 -60 -15z"/>
<path d="M8751 6463 c8 -10 34 -38 58 -63 39 -40 38 -38 -9 18 -28 34 -54 62
-57 62 -3 0 1 -8 8 -17z"/>
<path d="M1926 6342 c-13 -29 -13 -33 -1 -18 8 11 15 25 15 30 0 6 5 4 10 -4
8 -13 10 -13 10 2 0 32 -17 27 -34 -10z"/>
<path d="M8850 6347 c0 -2 15 -16 33 -33 l32 -29 -29 33 c-28 30 -36 37 -36
29z"/>
<path d="M1710 6185 c-7 -9 -10 -18 -7 -21 3 -3 10 4 17 15 13 25 8 27 -10 6z"/>
<path d="M7812 6170 c7 -11 14 -16 16 -10 2 6 9 7 15 3 7 -4 6 1 -2 10 -7 9
-20 17 -27 17 -12 0 -12 -4 -2 -20z"/>
<path d="M1530 5885 c0 -8 2 -15 4 -15 2 0 6 7 10 15 3 8 1 15 -4 15 -6 0 -10
-7 -10 -15z"/>
<path d="M1232 5566 c-88 -123 -192 -249 -199 -242 -3 3 7 22 22 43 15 21 18
27 6 13 -80 -93 -102 -122 -97 -127 3 -4 6 -1 6 5 0 7 7 12 15 12 8 0 15 7 15
15 0 9 6 15 13 13 22 -5 189 143 182 161 -3 9 -3 12 1 8 7 -7 62 77 91 141 30
65 32 72 29 72 -1 0 -39 -51 -84 -114z"/>
<path d="M1419 5623 c-13 -16 -12 -17 4 -4 9 7 17 15 17 17 0 8 -8 3 -21 -13z"/>
<path d="M2365 5469 c-4 -6 -5 -12 -2 -15 2 -3 7 2 10 11 7 17 1 20 -8 4z"/>
<path d="M1805 5440 c-3 -6 1 -7 9 -4 18 7 21 14 7 14 -6 0 -13 -4 -16 -10z"/>
<path d="M4015 5420 c3 -5 8 -10 11 -10 2 0 4 5 4 10 0 6 -5 10 -11 10 -5 0
-7 -4 -4 -10z"/>
<path d="M6096 5412 c-2 -4 -1 -14 3 -21 6 -9 10 -7 14 8 5 20 -7 29 -17 13z"/>
<path d="M3905 5400 c3 -5 8 -10 11 -10 2 0 4 5 4 10 0 6 -5 10 -11 10 -5 0
-7 -4 -4 -10z"/>
<path d="M3780 5389 c0 -5 5 -7 10 -4 6 3 10 8 10 11 0 2 -4 4 -10 4 -5 0 -10
-5 -10 -11z"/>
<path d="M1067 5250 c-19 -21 -24 -30 -13 -30 8 0 21 7 29 15 17 17 28 10 19
-13 -5 -15 -4 -15 12 0 13 14 15 22 6 38 -14 26 -19 25 -53 -10z"/>
<path d="M2380 5217 c-19 -18 -51 -45 -70 -61 -32 -26 -32 -27 -5 -11 38 21
134 105 120 105 -5 -1 -26 -15 -45 -33z"/>
<path d="M8995 5220 c3 -5 40 -37 83 -72 42 -34 99 -83 127 -108 27 -25 76
-70 110 -99 96 -87 333 -329 422 -432 190 -217 360 -468 436 -644 69 -160 67
-166 67 250 l0 370 -53 51 c-74 73 -291 234 -313 234 -3 0 -26 14 -51 31 -25
18 -188 105 -362 193 -303 155 -377 196 -356 196 11 1 -36 29 -48 30 -5 0 -5
-5 -2 -11 4 -5 -10 -3 -29 5 -20 8 -34 11 -31 6z m885 -766 c0 -9 5 -12 12 -8
7 4 8 3 4 -4 -12 -19 -36 -14 -36 8 0 11 5 20 10 20 6 0 10 -7 10 -16z"/>
<path d="M1359 4857 c-26 -23 -59 -54 -75 -68 -16 -14 -38 -36 -49 -49 -29
-35 55 32 130 102 69 66 64 79 -6 15z"/>
<path d="M4785 4580 c3 -5 16 -10 29 -10 12 0 28 -6 36 -12 8 -7 6 -3 -4 10
-18 21 -74 33 -61 12z"/>
<path d="M5075 4581 c-3 -5 10 -9 29 -8 19 1 32 5 29 10 -6 10 -51 9 -58 -2z"/>
<path d="M9656 4458 c1 -13 18 -59 38 -103 66 -152 116 -367 116 -503 0 -34
-7 -106 -16 -160 -23 -145 -24 -155 -12 -169 6 -7 23 -13 39 -13 16 0 29 -4
29 -10 0 -5 7 -10 17 -10 9 0 14 -3 10 -6 -3 -3 2 -14 11 -24 32 -35 41 -48
36 -52 -2 -3 16 -13 41 -22 45 -18 86 -14 82 7 -5 27 44 18 78 -14 36 -35 46
-69 20 -69 -8 0 -15 -4 -15 -10 0 -5 -7 -7 -15 -4 -11 5 -13 2 -8 -12 4 -12 3
-15 -5 -10 -7 4 -12 2 -12 -4 0 -6 -4 -9 -9 -5 -6 3 -13 -1 -18 -9 -7 -12 -10
-12 -21 0 -7 7 -13 17 -14 21 -4 32 -23 63 -36 64 -88 5 -167 -7 -214 -32 -10
-5 -23 -9 -30 -9 -6 0 -20 -7 -30 -17 -10 -9 -29 -17 -42 -19 -13 -1 -35 -14
-50 -29 -21 -20 -30 -24 -40 -16 -11 9 -15 6 -19 -15 -3 -18 11 -68 43 -148
26 -66 53 -134 59 -151 6 -17 9 -21 7 -7 -2 12 0 20 4 17 5 -3 11 1 14 7 3 7
3 0 -1 -17 -6 -34 -6 -33 -3 -60 2 -15 4 -12 10 10 l7 30 14 -30 c17 -36 39
-44 39 -14 0 19 2 20 17 8 9 -8 14 -9 10 -3 -4 6 1 21 11 32 16 18 20 18 37 6
11 -8 26 -12 33 -9 10 4 13 0 9 -15 -3 -11 -1 -20 4 -20 5 0 9 7 9 16 0 12 6
15 26 10 18 -5 24 -3 18 5 -4 8 -3 9 4 5 7 -4 12 -15 13 -24 0 -11 2 -12 6 -4
2 6 10 9 16 5 8 -4 7 -1 -1 9 -10 13 -10 17 3 21 8 4 14 1 12 -6 -1 -8 10 -11
33 -10 36 2 76 3 120 3 14 0 33 9 42 21 10 11 26 22 35 23 16 3 18 18 21 154
2 91 -1 152 -6 152 -16 0 -22 41 -6 47 18 7 18 31 -1 160 -9 58 -25 120 -35
139 -11 19 -16 34 -13 34 4 0 -3 7 -15 16 -14 9 -21 22 -18 31 3 8 1 11 -4 8
-5 -3 -24 7 -42 24 -18 16 -44 39 -58 51 -21 18 -22 20 -5 15 11 -4 28 -10 38
-12 9 -3 17 -9 17 -13 0 -4 10 -10 23 -12 19 -4 22 0 25 33 6 93 -112 312
-291 539 -64 82 -174 200 -187 200 -4 0 -6 -10 -4 -22z m346 -1280 c-11 -11
-32 -3 -32 12 0 4 9 6 21 3 13 -4 17 -9 11 -15z m-322 -8 c0 -5 -4 -10 -10
-10 -5 0 -10 5 -10 10 0 6 5 10 10 10 6 0 10 -4 10 -10z m220 -140 c0 -5 -7
-7 -15 -4 -8 4 -15 8 -15 10 0 2 7 4 15 4 8 0 15 -4 15 -10z m130 -80 c0 -5
-4 -10 -10 -10 -5 0 -10 5 -10 10 0 6 5 10 10 10 6 0 10 -4 10 -10z m115 -10
c3 -5 -1 -10 -10 -10 -9 0 -13 5 -10 10 3 6 8 10 10 10 2 0 7 -4 10 -10z"/>
<path d="M4420 4176 c0 -28 179 -80 310 -91 296 -23 505 -11 680 42 94 29 116
41 101 56 -7 7 -28 2 -63 -14 -48 -22 -68 -24 -218 -26 -91 -1 -184 -7 -207
-14 -23 -6 -59 -8 -80 -5 -21 4 -121 10 -223 14 -163 7 -190 10 -227 30 -49
25 -73 28 -73 8z"/>
<path d="M1345 3549 c-4 -6 -5 -12 -2 -15 2 -3 7 2 10 11 7 17 1 20 -8 4z"/>
<path d="M422 3266 c7 -8 16 -12 21 -9 11 7 -2 23 -19 23 -12 0 -12 -2 -2 -14z"/>
<path d="M402 3232 c-6 -2 -12 -8 -12 -13 0 -6 5 -7 11 -3 6 3 -3 -17 -19 -46
-24 -42 -28 -58 -21 -76 6 -17 5 -24 -4 -24 -8 0 -13 -19 -14 -53 -1 -28 -7
-65 -13 -81 -8 -23 -8 -31 2 -38 20 -12 33 -4 33 21 0 12 5 25 11 29 18 11
114 197 114 220 0 15 -7 22 -27 24 -16 2 -27 8 -26 13 2 14 -20 32 -35 27z
m-47 -322 c3 -5 1 -10 -4 -10 -6 0 -11 5 -11 10 0 6 2 10 4 10 3 0 8 -4 11
-10z"/>
<path d="M9551 3214 c0 -11 3 -14 6 -6 3 7 2 16 -1 19 -3 4 -6 -2 -5 -13z"/>
<path d="M5070 2996 c0 -2 7 -7 16 -10 8 -3 12 -2 9 4 -6 10 -25 14 -25 6z"/>
<path d="M541 2904 c0 -11 3 -14 6 -6 3 7 2 16 -1 19 -3 4 -6 -2 -5 -13z"/>
<path d="M4755 2910 c4 -6 11 -8 16 -5 14 9 11 15 -7 15 -8 0 -12 -5 -9 -10z"/>
<path d="M2170 2889 c0 -5 5 -7 10 -4 6 3 10 8 10 11 0 2 -4 4 -10 4 -5 0 -10
-5 -10 -11z"/>
<path d="M8783 2714 c-4 -10 -14 -26 -22 -36 -15 -17 -16 -17 -23 -1 -5 15 -7
14 -7 -5 -1 -13 -5 -21 -9 -18 -5 3 -17 -12 -26 -32 -34 -71 -239 -388 -319
-492 -119 -154 -322 -401 -424 -512 -48 -54 -149 -164 -223 -245 -381 -417
-538 -633 -680 -938 -41 -86 -160 -404 -160 -425 0 -6 59 -10 158 -10 l157 0
50 68 c80 108 214 259 335 377 100 96 114 107 121 90 5 -11 24 -89 44 -172 21
-84 41 -153 46 -153 5 0 7 -11 3 -25 -5 -20 -3 -24 10 -19 22 8 29 38 15 68
-15 31 -8 41 19 27 17 -9 19 -7 14 15 -3 19 3 33 24 52 19 18 26 21 21 9 -3
-9 -2 -17 3 -17 6 0 10 -9 10 -20 0 -14 5 -18 17 -13 14 5 15 1 10 -30 -5 -32
-2 -39 26 -61 36 -28 33 -37 -12 -38 -36 -1 -40 -17 -11 -43 12 -11 22 -37 26
-66 6 -46 8 -49 36 -49 23 0 29 4 24 15 -4 12 -2 13 14 3 40 -25 32 5 -16 54
-27 29 -39 44 -27 34 l21 -17 -9 43 c-5 24 -11 53 -14 66 -3 12 -13 22 -23 23
-15 0 -15 1 -1 11 13 9 12 24 -13 137 -28 123 -32 205 -12 255 5 14 4 17 -4
12 -8 -5 -12 1 -12 17 0 14 7 28 16 31 9 3 14 13 11 20 -3 8 -1 17 6 20 9 3 9
7 -1 14 -17 12 9 35 31 26 8 -3 18 0 23 7 4 8 3 10 -4 5 -7 -4 -12 -2 -12 5 0
6 8 9 20 6 14 -4 20 0 20 11 0 13 3 12 16 -4 13 -16 15 -16 10 -1 -4 12 0 17
14 17 11 0 20 7 20 16 0 9 -5 12 -12 8 -7 -4 -8 -3 -4 5 4 6 13 11 19 9 24 -4
58 14 53 28 -3 8 -1 14 4 14 6 0 10 -5 10 -11 0 -14 24 11 33 34 3 9 12 17 19
17 9 0 8 -3 -2 -10 -8 -5 -10 -10 -4 -10 5 0 20 9 31 19 12 11 24 17 27 14 3
-4 6 -1 6 6 0 7 5 9 10 6 6 -3 10 -2 10 4 0 6 7 8 15 5 9 -4 15 0 15 9 0 10 7
13 19 10 10 -3 22 1 26 8 6 8 4 10 -5 4 -9 -6 -11 -4 -6 4 5 7 14 10 22 7 8
-3 14 1 14 8 0 10 7 12 22 8 14 -3 19 -2 14 6 -5 8 3 12 24 12 18 0 29 4 25
10 -3 6 -1 10 4 10 6 0 11 6 11 14 0 8 5 18 12 22 8 5 9 2 5 -10 -7 -19 4 -15
37 13 10 9 20 15 22 14 10 -7 23 -1 50 22 16 14 34 25 41 25 6 0 13 5 15 11 3
9 22 15 51 18 5 1 5 6 2 11 -3 6 -1 10 5 10 6 0 8 5 5 10 -3 6 0 10 8 10 21 0
50 37 41 51 -5 9 -2 10 9 6 14 -5 15 -3 5 13 -7 10 -9 22 -5 26 7 7 87 -13
207 -53 322 -108 529 -359 619 -753 35 -152 83 -444 79 -483 l-4 -37 263 0
263 0 0 233 0 233 -185 190 c-246 251 -238 242 -445 504 -11 14 -25 42 -32 62
-6 21 -14 35 -18 33 -4 -2 -21 29 -39 70 -18 41 -44 86 -57 100 -13 14 -21 32
-18 40 4 9 0 15 -9 15 -9 0 -19 9 -22 20 -4 11 -10 18 -15 15 -5 -3 -18 8 -30
25 -12 17 -25 28 -29 25 -9 -5 -44 61 -59 110 -14 47 -41 43 -108 -14 -32 -27
-61 -48 -64 -45 -2 3 3 10 13 15 9 6 15 15 12 20 -4 5 -38 -22 -78 -61 -48
-48 -73 -66 -78 -58 -5 7 -1 20 7 29 8 8 11 19 8 22 -4 4 -1 13 5 21 40 48
167 316 195 411 7 22 16 40 21 40 17 0 35 16 35 28 0 7 -7 3 -15 -7 -8 -11
-15 -15 -15 -9 0 6 7 16 15 23 8 7 15 9 15 5 0 -4 7 -2 15 5 9 7 14 19 11 27
-3 8 -2 12 3 9 22 -14 174 292 166 332 -2 10 -4 21 -4 25 -1 4 -9 3 -20 -2
-10 -6 -21 -8 -24 -4 -4 3 -9 -1 -12 -9 -5 -11 -17 -14 -46 -11 -34 4 -39 2
-39 -15 0 -11 -5 -22 -10 -24 -6 -2 -12 -13 -13 -26 0 -12 -4 -22 -8 -22 -3 0
-30 -47 -59 -105 -29 -58 -58 -105 -64 -105 -6 0 -4 5 4 10 13 8 13 11 1 22
-11 11 -13 11 -6 -1 6 -11 4 -13 -10 -8 -17 7 -17 6 0 -19 12 -19 14 -29 6
-37 -14 -14 -29 1 -31 33 -4 41 0 60 9 58 9 -3 11 2 11 23 0 8 -5 8 -15 -1
-17 -14 -21 0 -4 17 8 8 9 48 5 125 -7 147 -6 141 -28 157 -14 9 -18 20 -14
37 4 14 2 24 -4 24 -5 0 -10 -3 -11 -7 -6 -90 -11 -118 -20 -124 -6 -3 -8 -15
-5 -26 4 -12 1 -25 -8 -32 -12 -10 -14 -9 -10 6 7 29 -11 46 -52 48 -51 3 -52
3 -34 16 12 8 9 10 -13 6 -22 -3 -25 -2 -16 9 9 11 8 14 -1 14 -8 0 -11 9 -8
25 3 13 1 22 -3 19 -5 -3 -9 2 -9 11 0 9 -4 13 -10 10 -5 -3 -10 2 -11 12 -2
51 -30 145 -37 125 -3 -10 -7 -10 -18 -1 -11 9 -15 7 -21 -7z m90 -159 c4 -8
2 -17 -3 -20 -6 -4 -10 3 -10 14 0 25 6 27 13 6z m524 -112 c-3 -10 -5 -4 -5
12 0 17 2 24 5 18 2 -7 2 -21 0 -30z m-27 5 c0 -4 -4 -8 -9 -8 -6 0 -12 4 -15
8 -3 5 1 9 9 9 8 0 15 -4 15 -9z m-197 -431 c-21 -37 -89 -113 -212 -239 -120
-123 -167 -163 -145 -125 4 6 -6 0 -22 -14 -16 -14 -48 -37 -72 -51 -40 -23
-49 -44 -14 -30 15 5 15 4 3 -11 -7 -9 -17 -15 -21 -12 -4 3 -11 -2 -14 -11
-4 -10 -14 -14 -26 -11 -11 3 -23 0 -27 -5 -3 -7 -1 -8 5 -4 7 4 12 3 12 -3 0
-6 -9 -15 -20 -21 -11 -6 -20 -8 -20 -5 0 4 -7 -1 -16 -9 -8 -9 -19 -14 -24
-11 -5 3 -11 0 -13 -5 -3 -6 -4 -5 -3 2 1 7 18 21 37 30 19 10 27 18 19 18 -9
0 -5 7 10 17 58 40 250 204 304 261 32 34 62 59 66 57 4 -3 7 3 6 13 0 10 6
17 16 17 9 0 20 4 25 9 5 5 2 6 -6 1 -9 -5 -12 -3 -9 6 3 8 11 13 17 12 6 -2
10 1 9 5 -4 13 104 132 119 132 7 0 13 6 14 13 0 9 2 9 5 0 3 -7 2 -19 -3 -26z
m-393 -417 c-19 -16 -39 -30 -44 -30 -5 0 8 14 29 30 49 39 61 39 15 0z m6
-305 c-8 -8 -20 -15 -27 -15 -7 0 -4 6 7 15 25 19 40 19 20 0z m-271 -185 c-3
-5 -12 -10 -18 -10 -7 0 -6 4 3 10 19 12 23 12 15 0z m-588 -752 c-3 -7 -5 -2
-5 12 0 14 2 19 5 13 2 -7 2 -19 0 -25z"/>
<path d="M8654 1539 c-19 -22 -19 -22 4 -10 12 6 22 16 22 21 0 15 -5 12 -26
-11z"/>
<path d="M1485 2584 l-30 -26 33 18 c17 10 32 22 32 26 0 11 -1 10 -35 -18z"/>
<path d="M8908 2543 c7 -3 16 -2 19 1 4 3 -2 6 -13 5 -11 0 -14 -3 -6 -6z"/>
<path d="M9132 2380 c0 -14 2 -19 5 -12 2 6 2 18 0 25 -3 6 -5 1 -5 -13z"/>
<path d="M9130 2331 c0 -6 4 -13 10 -16 6 -3 7 1 4 9 -7 18 -14 21 -14 7z"/>
<path d="M3520 2169 c0 -5 5 -7 10 -4 6 3 10 8 10 11 0 2 -4 4 -10 4 -5 0 -10
-5 -10 -11z"/>
<path d="M3546 2162 c-2 -4 4 -8 14 -8 10 0 16 4 14 8 -3 4 -9 8 -14 8 -5 0
-11 -4 -14 -8z"/>
<path d="M9125 2150 c-3 -5 -1 -10 4 -10 6 0 11 5 11 10 0 6 -2 10 -4 10 -3 0
-8 -4 -11 -10z"/>
<path d="M469 2063 c-1 -5 -1 -11 -1 -14 1 -4 -7 -5 -17 -2 -13 3 -23 -2 -30
-16 -7 -12 -17 -21 -23 -21 -7 0 -55 -16 -108 -36 -97 -37 -106 -41 -223 -93
l-67 -30 0 -84 c0 -76 2 -85 20 -90 11 -3 18 -1 14 4 -3 5 5 9 18 9 13 0 34
10 48 21 42 34 281 193 342 227 51 30 58 31 66 16 9 -16 12 -15 36 11 l27 29
-38 38 c-34 35 -61 48 -64 31z"/>
<path d="M570 1976 c0 -2 7 -7 16 -10 8 -3 12 -2 9 4 -6 10 -25 14 -25 6z"/>
<path d="M9408 1962 c-12 -15 -11 -16 5 -3 19 15 24 2 5 -17 -7 -7 -8 -12 -2
-12 5 0 15 9 21 19 16 26 -10 37 -29 13z"/>
<path d="M622 1934 c10 -10 20 -16 22 -13 3 3 -5 11 -17 18 -21 13 -21 12 -5
-5z"/>
<path d="M9367 1902 c-10 -10 -17 -23 -17 -28 0 -4 7 2 16 14 8 12 20 19 26
16 7 -4 8 -2 4 4 -9 15 -10 15 -29 -6z"/>
<path d="M9288 1818 c-27 -26 -48 -52 -48 -57 0 -5 -17 -21 -37 -37 -41 -31
-62 -54 -63 -69 0 -12 65 51 142 138 71 79 74 96 6 25z"/>
<path d="M818 1809 c15 -6 30 -5 40 1 13 7 8 9 -23 9 -35 0 -37 -1 -17 -10z"/>
<path d="M6811 1731 c-7 -5 -12 -14 -10 -20 2 -6 10 -2 17 9 14 22 13 23 -7
11z"/>
<path d="M2355 1688 c-2 -7 -6 -24 -8 -38 -3 -20 -5 -18 -6 8 -1 30 -3 32 -16
18 -8 -8 -15 -25 -14 -38 1 -23 1 -23 9 2 8 28 5 35 29 -95 9 -50 9 -50 9 25
0 41 3 87 7 103 7 26 -2 39 -10 15z"/>
<path d="M9445 1690 c3 -5 8 -10 11 -10 2 0 4 5 4 10 0 6 -5 10 -11 10 -5 0
-7 -4 -4 -10z"/>
<path d="M9497 1599 c21 -40 42 -80 48 -90 5 -11 13 -19 17 -19 5 0 8 -6 8
-14 0 -8 8 -21 18 -28 9 -7 18 -20 20 -28 4 -20 45 -80 55 -80 4 0 7 -5 7 -11
0 -27 245 -306 414 -472 l151 -148 3 137 3 136 -43 46 c-162 172 -352 347
-512 470 -149 115 -167 132 -159 146 3 6 3 8 -2 4 -4 -4 -17 -1 -29 7 -37 27
-37 16 1 -56z"/>
<path d="M1999 1640 c-10 -15 -32 -23 -79 -30 -36 -6 -75 -12 -87 -15 -18 -4
-23 -1 -23 15 0 12 -4 18 -10 15 -5 -3 -10 -15 -10 -25 0 -10 -12 -28 -27 -40
-26 -20 -28 -27 -28 -98 -1 -117 -32 -718 -40 -772 -4 -31 -13 -150 -21 -295
-3 -60 -10 -168 -15 -240 -5 -72 -9 -136 -9 -142 0 -10 27 -13 100 -13 55 0
100 3 101 8 0 4 2 27 5 52 18 178 22 228 21 250 0 14 3 48 6 75 4 28 14 108
21 180 8 72 22 186 30 255 25 202 86 833 82 837 -2 2 -9 -6 -17 -17z m-115
-712 c-3 -13 -5 -78 -6 -145 0 -72 -5 -123 -10 -123 -6 0 -7 -7 -4 -16 4 -10
-2 -24 -15 -35 -12 -11 -18 -19 -13 -19 6 0 15 5 22 12 8 8 12 8 12 1 0 -6 -7
-13 -15 -17 -8 -3 -15 -15 -15 -26 0 -11 -4 -20 -9 -20 -18 0 -1 298 18 325 4
6 6 20 5 33 0 12 3 22 7 22 5 0 9 7 9 15 0 8 4 15 9 15 6 0 8 -10 5 -22z"/>
<path d="M2322 1580 c0 -19 2 -27 5 -17 2 9 2 25 0 35 -3 9 -5 1 -5 -18z"/>
<path d="M6684 1585 c-9 -22 1 -29 15 -11 8 10 9 16 1 21 -5 3 -13 -1 -16 -10z"/>
<path d="M2332 1515 c0 -16 2 -22 5 -12 2 9 2 23 0 30 -3 6 -5 -1 -5 -18z"/>
<path d="M2341 1454 c0 -11 3 -14 6 -6 3 7 2 16 -1 19 -3 4 -6 -2 -5 -13z"/>
<path d="M2351 1404 c0 -11 3 -14 6 -6 3 7 2 16 -1 19 -3 4 -6 -2 -5 -13z"/>
<path d="M599 1253 c-13 -16 -12 -17 4 -4 9 7 17 15 17 17 0 8 -8 3 -21 -13z"/>
<path d="M540 1237 c0 -2 6 -10 14 -16 11 -9 16 -9 22 1 4 7 4 10 -1 6 -4 -4
-14 -3 -22 3 -7 6 -13 9 -13 6z"/>
<path d="M540 1185 c-10 -12 -16 -13 -28 -3 -10 8 -13 9 -9 2 4 -7 0 -15 -9
-18 -9 -4 -13 -2 -8 5 4 7 1 10 -7 7 -8 -3 -13 -11 -11 -18 1 -6 -3 -10 -10
-8 -7 3 -24 -6 -37 -18 -14 -13 -28 -21 -33 -18 -5 3 -7 1 -6 -5 2 -5 -24 -36
-58 -68 -33 -32 -74 -77 -91 -100 -35 -49 -79 -103 -145 -178 -26 -30 -52 -63
-58 -75 -6 -11 -15 -18 -21 -15 -5 4 -9 -122 -9 -334 l0 -341 128 0 128 0 12
178 c13 187 38 361 72 503 29 122 58 228 66 241 5 7 2 8 -7 3 -21 -13 -124
-99 -127 -107 -2 -5 -10 -8 -18 -8 -9 0 -12 5 -8 12 4 7 3 8 -5 4 -6 -4 -9
-12 -5 -17 8 -13 -15 -39 -35 -39 -14 0 -14 2 -1 10 8 5 12 10 7 10 -4 0 -1
13 8 29 16 33 232 237 245 234 5 -2 6 5 3 14 -4 9 -2 14 3 11 5 -4 28 23 52
58 40 60 50 83 22 49z"/>
<path d="M5620 1102 c8 -5 26 -13 40 -16 17 -5 20 -4 10 2 -8 5 -26 13 -40 16
-17 5 -20 4 -10 -2z"/>
<path d="M5698 1073 c17 -7 16 -15 -22 -149 -49 -172 -95 -309 -128 -384 -17
-36 -39 -90 -51 -120 -26 -71 -77 -163 -150 -274 -92 -139 -72 -129 -234 -121
-121 6 -140 5 -152 -9 -12 -15 37 -16 590 -16 l604 0 69 183 c38 100 87 227
109 282 21 55 50 127 63 160 13 33 17 52 10 42 -13 -16 -16 -15 -46 13 -176
164 -558 401 -644 399 -17 0 -25 -3 -18 -6z"/>
<path d="M3704 859 c-185 -126 -302 -244 -431 -434 -63 -94 -213 -408 -200
-421 2 -2 261 -3 576 -2 l572 3 -46 53 c-25 30 -64 85 -86 123 -23 38 -46 69
-52 69 -6 0 -7 3 -4 6 9 9 -12 46 -23 39 -4 -3 -6 4 -3 15 4 14 1 20 -8 18
-14 -3 -15 2 -18 50 0 12 -5 22 -11 22 -5 0 -7 -8 -4 -17 5 -15 4 -16 -5 -3
-6 8 -11 22 -11 31 0 25 -26 70 -35 61 -4 -4 -4 3 -1 16 6 17 3 22 -9 22 -9 0
-15 6 -13 12 3 7 -1 18 -7 24 -6 6 -24 65 -39 130 -15 66 -34 144 -41 174 -10
42 -11 56 -2 62 7 5 8 8 1 8 -5 0 -50 -27 -100 -61z"/>
<path d="M6487 845 c-24 -50 -20 -58 4 -12 11 22 19 41 17 43 -3 2 -12 -12
-21 -31z"/>
<path d="M215 800 c-3 -5 -1 -10 4 -10 6 0 11 5 11 10 0 6 -2 10 -4 10 -3 0
-8 -4 -11 -10z"/>
<path d="M15 709 c-4 -6 -5 -12 -2 -15 2 -3 7 2 10 11 7 17 1 20 -8 4z"/>
<path d="M7814 122 c3 -9 8 -30 11 -47 4 -16 8 -40 11 -52 2 -13 11 -23 20
-23 12 0 13 7 7 38 -4 20 -8 51 -8 68 0 24 -4 30 -23 32 -18 1 -22 -2 -18 -16z"/>
<path d="M7874 80 c2 -54 17 -92 31 -78 5 5 -20 126 -28 134 -2 3 -3 -23 -3
-56z"/>
</g>
</svg>
