<?xml version="1.0" encoding="UTF-8"?>
<!-- Generated by Pixelmator Pro 3.4.3 -->
<svg width="800" height="800" viewBox="0 0 800 800" xmlns="http://www.w3.org/2000/svg">
    <g id="Group">
        <path id="Path" fill="#5865f2" stroke="none" d="M 677.676086 140.92688 C 625.890625 116.697754 570.519226 99.08905 512.629883 89.0625 C 505.520386 101.916199 497.214447 119.204712 491.487793 132.957642 C 429.950012 123.703064 368.978027 123.703064 308.57193 132.957642 C 302.846375 119.204712 294.351807 101.916199 287.178711 89.0625 C 229.226898 99.08905 173.791855 116.762451 122.006432 141.055176 C 17.554758 298.895355 -10.760372 452.815033 3.397221 604.549133 C 72.675064 656.284058 139.813644 687.711548 205.819153 708.276794 C 222.116302 685.84729 236.651138 662.00415 249.172546 636.875854 C 225.325058 627.814331 202.484299 616.631897 180.902451 603.649902 C 186.628006 599.408081 192.228531 594.973267 197.639343 590.410156 C 329.273163 651.97876 472.296661 651.97876 602.357849 590.410156 C 607.832275 594.973267 613.431763 599.408081 619.094727 603.649902 C 597.449341 616.695496 574.546021 627.87793 550.698547 636.940552 C 563.219971 662.00415 577.692322 685.911987 594.051941 708.340393 C 660.121033 687.775208 727.32196 656.348816 796.599792 604.549133 C 813.211731 428.650604 768.222168 276.144531 677.676086 140.92688 Z M 267.105865 511.234039 C 227.590698 511.234039 195.185059 474.344238 195.185059 429.42157 C 195.185059 384.498901 226.898743 347.545502 267.105865 347.545502 C 307.314087 347.545502 339.718628 384.434204 339.026642 429.42157 C 339.089142 474.344238 307.314087 511.234039 267.105865 511.234039 Z M 532.891357 511.234039 C 493.376221 511.234039 460.970581 474.344238 460.970581 429.42157 C 460.970581 384.498901 492.683136 347.545502 532.891357 347.545502 C 573.098511 347.545502 605.50415 384.434204 604.812134 429.42157 C 604.812134 474.344238 573.098511 511.234039 532.891357 511.234039 Z"/>
    </g>
</svg>
